<svg width="84" height="84" viewBox="0 0 84 84" fill="none" xmlns="http://www.w3.org/2000/svg">
<rect width="84" height="84" rx="22" fill="#F6F7FE"/>
<g clip-path="url(#clip0_50_569)">
<path d="M44.0491 65.3273C40.2374 66.0006 36.4122 64.2188 34.4694 60.8656L18.2544 32.8796C15.0356 27.3244 18.3167 20.2561 24.6309 19.1409C28.4425 18.4675 32.2678 20.2493 34.2105 23.6026L50.4256 51.5885C53.6443 57.1431 50.3632 64.212 44.0491 65.3273Z" fill="#00A6F7"/>
<path d="M58.666 37.5704C63.7853 37.5704 67.9354 33.4133 67.9354 28.2852C67.9354 23.1571 63.7853 19 58.666 19C53.5467 19 49.3967 23.1571 49.3967 28.2852C49.3967 33.4133 53.5467 37.5704 58.666 37.5704Z" fill="#00A6F7"/>
</g>
<defs>
<clipPath id="clip0_50_569">
<rect width="50.9362" height="46.4681" fill="white" transform="translate(17 19)"/>
</clipPath>
</defs>
</svg>
