<svg width="17" height="16" viewBox="0 0 17 16" fill="none" xmlns="http://www.w3.org/2000/svg">
<path d="M16.9999 8.00019C16.9999 8.2654 16.8946 8.51976 16.707 8.70729C16.5195 8.89483 16.2652 9.00019 15.9999 9.00019H4.40994L8.70994 13.2902C8.89824 13.4785 9.00403 13.7339 9.00403 14.0002C9.00403 14.2665 8.89824 14.5219 8.70994 14.7102C8.52164 14.8985 8.26624 15.0043 7.99994 15.0043C7.73364 15.0043 7.47824 14.8985 7.28994 14.7102L1.28994 8.71019C1.19621 8.61722 1.12182 8.50662 1.07105 8.38476C1.02028 8.2629 0.994141 8.1322 0.994141 8.00019C0.994141 7.86817 1.02028 7.73747 1.07105 7.61561C1.12182 7.49375 1.19621 7.38315 1.28994 7.29019L7.28994 1.29019C7.38318 1.19695 7.49387 1.12299 7.61569 1.07253C7.73751 1.02207 7.86808 0.996094 7.99994 0.996094C8.1318 0.996094 8.26237 1.02207 8.38419 1.07253C8.50601 1.12299 8.6167 1.19695 8.70994 1.29019C8.80318 1.38342 8.87714 1.49411 8.9276 1.61594C8.97806 1.73776 9.00403 1.86833 9.00403 2.00019C9.00403 2.13204 8.97806 2.26261 8.9276 2.38443C8.87714 2.50626 8.80318 2.61695 8.70994 2.71019L4.40994 7.00019H15.9999C16.2652 7.00019 16.5195 7.10554 16.707 7.29308C16.8946 7.48062 16.9999 7.73497 16.9999 8.00019Z" fill="white"/>
</svg>
