<svg width="16" height="16" viewBox="0 0 16 16" fill="none" xmlns="http://www.w3.org/2000/svg">
<path d="M14.06 6.52395C14.0857 6.5394 14.1067 6.56148 14.1209 6.58785C14.1347 6.61419 14.1412 6.64376 14.1398 6.67349C14.1383 6.70325 14.1289 6.73207 14.1125 6.75696C14.1124 6.75709 14.1123 6.75722 14.1123 6.75735L8.78081 14.7545C8.7807 14.7547 8.7806 14.7548 8.7805 14.755C8.76065 14.7843 8.73197 14.8066 8.69861 14.8185C8.66509 14.8305 8.6286 14.8314 8.5945 14.8212C8.56039 14.8109 8.53047 14.79 8.50911 14.7616C8.48801 14.7334 8.47636 14.6993 8.47582 14.6641V10.0001V9.50006H7.97582H3.33054C3.3053 9.49681 3.28109 9.48781 3.2598 9.4737C3.23553 9.45761 3.21589 9.43545 3.20285 9.40942L3.19623 9.3962L3.18883 9.3834C3.1742 9.35806 3.1665 9.32932 3.1665 9.30006C3.1665 9.27439 3.17243 9.24913 3.18376 9.2262L8.50417 1.24559C8.50428 1.24542 8.5044 1.24524 8.50452 1.24507C8.52436 1.21577 8.55303 1.19354 8.58636 1.18162C8.61989 1.16962 8.65638 1.16868 8.69048 1.17893C8.72458 1.18918 8.7545 1.21008 8.77586 1.23857C8.79697 1.26672 8.80861 1.30082 8.80915 1.33598V6.00006V6.50006H9.30915H13.975C14.0049 6.50023 14.0343 6.50848 14.06 6.52395ZM8.80915 12.4667V14.119L9.72526 12.744L13.1453 7.61062L13.6631 6.8334H12.7292H8.64249C8.59828 6.8334 8.55589 6.81584 8.52464 6.78458C8.49338 6.75332 8.47582 6.71093 8.47582 6.66673V3.5334V1.88112L7.55971 3.25617L4.13971 8.3895L3.6219 9.16673H4.55582H8.64249C8.68669 9.16673 8.72908 9.18429 8.76034 9.21554C8.79159 9.2468 8.80915 9.28919 8.80915 9.3334V12.4667Z" fill="#222221" stroke="#00A6F7"/>
</svg>
