<svg width="18" height="18" viewBox="0 0 18 18" fill="none" xmlns="http://www.w3.org/2000/svg">
<g clip-path="url(#clip0_225_1103)">
<path d="M9 0C4.0372 0 0 4.0372 0 9C0 13.9628 4.0372 18 9 18C13.9628 18 18 13.9628 18 9C18 4.0372 13.9628 0 9 0Z" fill="#00A6F7"/>
<path d="M13.5617 7.09296L8.68666 11.9679C8.54041 12.1141 8.34842 12.1877 8.15643 12.1877C7.96445 12.1877 7.77246 12.1141 7.62621 11.9679L5.18875 9.53041C4.89542 9.23721 4.89542 8.76315 5.18875 8.46996C5.48195 8.17662 5.95587 8.17662 6.24921 8.46996L8.15643 10.3772L12.5013 6.0325C12.7944 5.73917 13.2684 5.73917 13.5617 6.0325C13.8549 6.3257 13.8549 6.79962 13.5617 7.09296V7.09296Z" fill="#FAFAFA"/>
</g>
<defs>
<clipPath id="clip0_225_1103">
<rect width="18" height="18" fill="white"/>
</clipPath>
</defs>
</svg>
