<svg width="11" height="12" viewBox="0 0 11 12" fill="none" xmlns="http://www.w3.org/2000/svg">
<g clip-path="url(#clip0_636_3825)">
<path d="M10.5417 10.1391V4.40998C10.5417 4.31831 10.4871 4.23535 10.4028 4.19915L7.19446 2.82415C7.12342 2.79344 7.04229 2.80077 6.97813 2.8434C6.9135 2.88602 6.875 2.95798 6.875 3.03498V10.1391H6.41667V0.399563C6.41667 0.286354 6.36121 0.180479 6.26817 0.116313C6.17467 0.0521461 6.05642 0.0379377 5.95054 0.0782711L1.13804 1.9116C1.00467 1.96248 0.916667 2.09035 0.916667 2.2329V10.1391H0.458333C0.205333 10.1391 0 10.344 0 10.5975C0 10.8509 0.205333 11.0558 0.458333 11.0558H10.5417C10.7947 11.0558 11 10.8509 11 10.5975C11 10.344 10.7947 10.1391 10.5417 10.1391ZM9.16667 5.89956C9.16667 5.70981 9.32067 5.55581 9.51042 5.55581C9.70017 5.55581 9.85417 5.70981 9.85417 5.89956V6.58706C9.85417 6.77681 9.70017 6.93081 9.51042 6.93081C9.32067 6.93081 9.16667 6.77681 9.16667 6.58706V5.89956ZM9.16667 8.64956C9.16667 8.45981 9.32067 8.30581 9.51042 8.30581C9.70017 8.30581 9.85417 8.45981 9.85417 8.64956V9.33706C9.85417 9.52681 9.70017 9.68081 9.51042 9.68081C9.32067 9.68081 9.16667 9.52681 9.16667 9.33706V8.64956ZM7.5625 5.89956C7.5625 5.70981 7.7165 5.55581 7.90625 5.55581C8.096 5.55581 8.25 5.70981 8.25 5.89956V6.58706C8.25 6.77681 8.096 6.93081 7.90625 6.93081C7.7165 6.93081 7.5625 6.77681 7.5625 6.58706V5.89956ZM7.5625 8.64956C7.5625 8.45981 7.7165 8.30581 7.90625 8.30581C8.096 8.30581 8.25 8.45981 8.25 8.64956V9.33706C8.25 9.52681 8.096 9.68081 7.90625 9.68081C7.7165 9.68081 7.5625 9.52681 7.5625 9.33706V8.64956ZM4.35417 3.14956C4.35417 2.95981 4.50817 2.80581 4.69792 2.80581C4.88767 2.80581 5.04167 2.95981 5.04167 3.14956V3.83706C5.04167 4.02681 4.88767 4.18081 4.69792 4.18081C4.50817 4.18081 4.35417 4.02681 4.35417 3.83706V3.14956ZM4.35417 5.89956C4.35417 5.70981 4.50817 5.55581 4.69792 5.55581C4.88767 5.55581 5.04167 5.70981 5.04167 5.89956V6.58706C5.04167 6.77681 4.88767 6.93081 4.69792 6.93081C4.50817 6.93081 4.35417 6.77681 4.35417 6.58706V5.89956ZM4.35417 8.64956C4.35417 8.45981 4.50817 8.30581 4.69792 8.30581C4.88767 8.30581 5.04167 8.45981 5.04167 8.64956V9.33706C5.04167 9.52681 4.88767 9.68081 4.69792 9.68081C4.50817 9.68081 4.35417 9.52681 4.35417 9.33706V8.64956ZM2.29167 3.14956C2.29167 2.95981 2.44567 2.80581 2.63542 2.80581C2.82517 2.80581 2.97917 2.95981 2.97917 3.14956V3.83706C2.97917 4.02681 2.82517 4.18081 2.63542 4.18081C2.44567 4.18081 2.29167 4.02681 2.29167 3.83706V3.14956ZM2.29167 5.89956C2.29167 5.70981 2.44567 5.55581 2.63542 5.55581C2.82517 5.55581 2.97917 5.70981 2.97917 5.89956V6.58706C2.97917 6.77681 2.82517 6.93081 2.63542 6.93081C2.44567 6.93081 2.29167 6.77681 2.29167 6.58706V5.89956ZM2.29167 8.64956C2.29167 8.45981 2.44567 8.30581 2.63542 8.30581C2.82517 8.30581 2.97917 8.45981 2.97917 8.64956V9.33706C2.97917 9.52681 2.82517 9.68081 2.63542 9.68081C2.44567 9.68081 2.29167 9.52681 2.29167 9.33706V8.64956Z" fill="#00A6F7"/>
</g>
<defs>
<clipPath id="clip0_636_3825">
<rect width="11" height="11" fill="white" transform="translate(0 0.0556641)"/>
</clipPath>
</defs>
</svg>
