<svg width="40" height="40" viewBox="0 0 40 40" fill="none" xmlns="http://www.w3.org/2000/svg">
<circle cx="20" cy="20" r="20" fill="#0309A7"/>
<path d="M13.6777 24.3422C13.3966 24.182 13.1627 23.9504 12.9999 23.6708C12.837 23.3912 12.7508 23.0736 12.75 22.75V13.5833C12.75 12.575 13.575 11.75 14.5833 11.75H23.75C24.4375 11.75 24.8115 12.1029 25.125 12.6667M16.4167 17.8614C16.4167 17.213 16.6742 16.5912 17.1327 16.1327C17.5912 15.6742 18.213 15.4167 18.8614 15.4167H26.8053C27.1263 15.4167 27.4442 15.4799 27.7408 15.6028C28.0374 15.7256 28.3069 15.9057 28.5339 16.1327C28.761 16.3597 28.941 16.6292 29.0639 16.9259C29.1868 17.2225 29.25 17.5404 29.25 17.8614V25.8053C29.25 26.1263 29.1868 26.4442 29.0639 26.7408C28.941 27.0374 28.761 27.3069 28.5339 27.5339C28.3069 27.761 28.0374 27.941 27.7408 28.0639C27.4442 28.1868 27.1263 28.25 26.8053 28.25H18.8614C18.5404 28.25 18.2225 28.1868 17.9259 28.0639C17.6292 27.941 17.3597 27.761 17.1327 27.5339C16.9057 27.3069 16.7256 27.0374 16.6028 26.7408C16.4799 26.4442 16.4167 26.1263 16.4167 25.8053V17.8614Z" stroke="white" stroke-width="1.5" stroke-linecap="round" stroke-linejoin="round"/>
</svg>
