<svg width="9" height="9" viewBox="0 0 9 9" fill="none" xmlns="http://www.w3.org/2000/svg">
<g clip-path="url(#clip0_679_3286)">
<path d="M4.91602 0.00488281C5.42843 0.74702 5.82773 1.56119 6.10086 2.42068C6.72583 2.32264 7.32775 2.11178 7.87731 1.79842L8.03859 1.69841C7.27353 0.730179 6.14486 0.118044 4.91602 0.00488281Z" fill="#00A6F7"/>
<path d="M5.62841 3.14551C5.2536 3.18843 4.87663 3.20998 4.49938 3.21002C4.12211 3.20996 3.74517 3.18843 3.37036 3.14551C3.29073 3.48469 3.24001 3.83002 3.21875 4.17776H5.78003C5.75877 3.83002 5.70804 3.48469 5.62841 3.14551Z" fill="#00A6F7"/>
<path d="M4.50045 6.43555C4.1826 6.43583 3.86499 6.45229 3.54883 6.4849C3.78141 7.17938 4.10118 7.84155 4.50045 8.45554C4.89972 7.84155 5.21947 7.17937 5.45207 6.4849C5.13591 6.45229 4.81829 6.43583 4.50045 6.43555Z" fill="#00A6F7"/>
<path d="M6.42341 4.82227C6.40375 5.20288 6.35228 5.58121 6.26953 5.95324C6.95634 6.06733 7.61687 6.30471 8.21921 6.65389L8.40147 6.76743C8.74742 6.17347 8.95227 5.50796 9.00019 4.82227H6.42341V4.82227Z" fill="#00A6F7"/>
<path d="M8.40147 2.23242L8.21921 2.34598C7.61698 2.69573 6.95646 2.93364 6.26953 3.04824C6.35217 3.41964 6.40364 3.79729 6.42341 4.17726H9.00019C8.95222 3.49168 8.74739 2.8263 8.40147 2.23242Z" fill="#00A6F7"/>
<path d="M3.21875 4.82227C3.2402 5.17005 3.29114 5.51537 3.371 5.85452C4.12125 5.76882 4.87881 5.76882 5.62907 5.85452C5.70849 5.51532 5.759 5.16999 5.78003 4.82227H3.21875Z" fill="#00A6F7"/>
<path d="M0.78096 2.34598L0.598696 2.23242C0.252804 2.8263 0.0479713 3.49168 0 4.17726H2.57678C2.59655 3.79729 2.64802 3.41963 2.73066 3.04824C2.04373 2.93364 1.38319 2.69573 0.78096 2.34598Z" fill="#00A6F7"/>
<path d="M2.89867 6.58008C2.27376 6.67816 1.67185 6.88889 1.12222 7.20202L0.960938 7.30235C1.72595 8.27062 2.85469 8.88268 4.08351 8.99558C3.57102 8.25357 3.17172 7.43952 2.89867 6.58008Z" fill="#00A6F7"/>
<path d="M4.50045 0.544922C4.10123 1.15883 3.78148 1.82089 3.54883 2.51524C3.86497 2.54802 4.1826 2.56448 4.50045 2.56459C4.81829 2.56448 5.13591 2.548 5.45207 2.51524C5.21941 1.82089 4.89966 1.15883 4.50045 0.544922Z" fill="#00A6F7"/>
<path d="M7.87827 7.20202C7.32864 6.8889 6.72673 6.67818 6.10182 6.58008C5.82849 7.43957 5.42884 8.25363 4.91602 8.99556C6.14486 8.88266 7.27358 8.2706 8.03859 7.30233L7.87827 7.20202Z" fill="#00A6F7"/>
<path d="M0.962891 1.69841L1.12321 1.79842C1.67276 2.11178 2.27469 2.32262 2.89966 2.42068C3.17307 1.56111 3.57271 0.746963 4.08547 0.00488281C2.85664 0.118025 1.72797 0.73016 0.962891 1.69841Z" fill="#00A6F7"/>
<path d="M2.57678 4.82227H0C0.0479146 5.50796 0.252747 6.17347 0.598715 6.76743L0.780979 6.65389C1.38332 6.30471 2.04384 6.06734 2.73066 5.95324C2.64789 5.58119 2.59642 5.20288 2.57678 4.82227Z" fill="#00A6F7"/>
</g>
<defs>
<clipPath id="clip0_679_3286">
<rect width="9" height="9" fill="white"/>
</clipPath>
</defs>
</svg>
