<svg width="37" height="37" viewBox="0 0 37 37" fill="none" xmlns="http://www.w3.org/2000/svg">
<circle cx="18.5" cy="18.5" r="18.5" fill="#0651BF"/>
<path d="M21.536 15.4639L12 24.9999M12 24.9999V20.9999M12 24.9999L16 24.9999M21.586 15.4138C21.7705 15.6049 21.9911 15.7572 22.2352 15.862C22.4792 15.9669 22.7416 16.022 23.0072 16.0243C23.2727 16.0266 23.5361 15.976 23.7819 15.8755C24.0277 15.7749 24.251 15.6264 24.4387 15.4386C24.6265 15.2508 24.775 15.0275 24.8756 14.7817C24.9762 14.536 25.0268 14.2726 25.0245 14.007C25.0222 13.7415 24.967 13.479 24.8622 13.235C24.7573 12.991 24.605 12.7703 24.414 12.5858C24.0368 12.2215 23.5316 12.0199 23.0072 12.0245C22.4828 12.029 21.9811 12.2394 21.6103 12.6102C21.2395 12.981 21.0292 13.4826 21.0246 14.007C21.0201 14.5314 21.2216 15.0366 21.586 15.4138Z" stroke="white" stroke-width="2" stroke-linecap="round" stroke-linejoin="round"/>
</svg>
