<?xml version="1.0" encoding="iso-8859-1"?>
<!-- Generator: Adobe Illustrator 19.0.0, SVG Export Plug-In . SVG Version: 6.00 Build 0)  -->
<svg version="1.1" id="Capa_1" xmlns="http://www.w3.org/2000/svg" xmlns:xlink="http://www.w3.org/1999/xlink" x="0px" y="0px"
	 viewBox="0 0 512 512" style="enable-background:new 0 0 512 512;" xml:space="preserve">
<g>
	<g>
		<path d="M255.981,0c-79.953,0-145,65.047-145,145s65.047,145,145,145s145-65.047,145-145S335.934,0,255.981,0z M270.981,217.42
			V235h-30v-16.231l-21.281-1.824l2.563-29.891l32.913,2.821c1.109,0.095,2.052,0.094,2.802-0.005
			c7.412-0.975,13.004-7.368,13.004-14.871c0-8.271-6.729-15-15-15c-24.813,0-45-20.187-45-45c0-10.054,3.245-19.565,9.384-27.506
			c5.32-6.882,12.536-11.899,20.616-14.682V55h30v16.991l22.121,3.16l-4.242,29.698l-30.663-4.38
			c-5.521-0.789-10.925,1.27-14.097,5.373c-2.041,2.639-3.119,5.806-3.119,9.158c0,8.271,6.729,15,15,15c24.813,0,45,20.187,45,45
			C300.981,194.319,288.589,211.178,270.981,217.42z"/>
	</g>
</g>
<g>
	<g>
		<path d="M502.399,274.324c-13.343-13.863-35.87-13.604-49.475,0.002l-70.898,70.898c-2.849,2.85-5.059,6.26-6.599,9.983
			c-9.656,23.342-32.67,39.807-59.46,39.807H215.902v-30h100.066c18.951,0,34.314-15.363,34.314-34.314
			c0-12.295-6.471-23.074-16.189-29.133C310.566,313.353,284.037,320,255.981,320c-47.557,0-90.735-19.077-122.308-49.969
			c-20.271,2.177-39.769,11.098-54.942,26.271l-78.712,78.75L136.967,512c24.168-24.168,56.947-37.745,91.125-37.745h79.964
			c27.397,0,53.664-10.921,72.984-30.345l120.89-121.536C515.173,309.132,515.329,287.758,502.399,274.324z"/>
	</g>
</g>
<g>
</g>
<g>
</g>
<g>
</g>
<g>
</g>
<g>
</g>
<g>
</g>
<g>
</g>
<g>
</g>
<g>
</g>
<g>
</g>
<g>
</g>
<g>
</g>
<g>
</g>
<g>
</g>
<g>
</g>
</svg>
