<?xml version="1.0" standalone="no"?>
<!DOCTYPE svg PUBLIC "-//W3C//DTD SVG 20010904//EN"
 "http://www.w3.org/TR/2001/REC-SVG-20010904/DTD/svg10.dtd">
<svg version="1.0" xmlns="http://www.w3.org/2000/svg"
 width="512.000000pt" height="512.000000pt" viewBox="0 0 512.000000 512.000000"
 preserveAspectRatio="xMidYMid meet">
<metadata>
Created by potrace 1.16, written by Peter Selinger 2001-2019
</metadata>
<g transform="translate(0.000000,512.000000) scale(0.100000,-0.100000)"
fill="#000000" stroke="none">
<path d="M2329 4483 l-713 -428 516 -3 c284 -1 751 -1 1037 0 l521 3 -231 395
c-126 217 -238 403 -247 414 -25 27 -75 46 -126 46 -40 0 -104 -36 -757 -427z"/>
<path d="M515 4685 c-201 -44 -353 -159 -443 -334 -77 -149 -72 -8 -72 -1902
0 -1878 -5 -1741 67 -1889 50 -104 177 -230 284 -283 146 -72 9 -68 2121 -65
l1903 3 68 32 c128 61 222 180 247 312 5 29 10 156 10 281 l0 228 -342 5
c-274 3 -356 7 -406 20 -338 89 -598 328 -700 647 -37 114 -45 182 -39 327 6
162 26 243 92 378 131 266 378 456 670 516 77 16 137 19 408 19 l317 0 0 238
c0 256 -7 307 -55 402 -35 69 -113 143 -192 182 l-68 33 -1895 5 c-1819 5
-1896 6 -1932 24 -71 35 -128 119 -128 190 0 70 54 152 123 185 42 20 58 21
426 21 l383 0 359 216 c197 118 359 217 359 220 0 2 -339 4 -752 3 -585 0
-766 -4 -813 -14z"/>
<path d="M3716 4624 c137 -245 330 -573 337 -574 14 0 7 249 -9 320 -35 155
-176 293 -323 316 l-44 7 39 -69z"/>
<path d="M4013 2655 c-224 -49 -420 -242 -478 -470 -19 -77 -19 -243 0 -320
44 -173 177 -337 336 -413 144 -70 180 -73 696 -70 440 3 452 4 480 24 15 11
38 36 51 54 l22 33 0 535 c0 526 0 535 -21 569 -12 18 -38 42 -60 53 -36 19
-60 20 -501 19 -349 0 -478 -4 -525 -14z m264 -461 c77 -63 106 -137 83 -219
-45 -161 -252 -208 -357 -81 -69 84 -68 187 3 265 51 57 87 72 166 69 57 -3
72 -8 105 -34z"/>
</g>
</svg>
