<?xml version="1.0" standalone="no"?>
<!DOCTYPE svg PUBLIC "-//W3C//DTD SVG 20010904//EN"
 "http://www.w3.org/TR/2001/REC-SVG-20010904/DTD/svg10.dtd">
<svg version="1.0" xmlns="http://www.w3.org/2000/svg"
 width="512.000000pt" height="512.000000pt" viewBox="0 0 512.000000 512.000000"
 preserveAspectRatio="xMidYMid meet">
<metadata>
Created by potrace 1.16, written by Peter Selinger 2001-2019
</metadata>
<g transform="translate(0.000000,512.000000) scale(0.100000,-0.100000)"
fill="#000000" stroke="none">
<path d="M2580 4785 c-864 -126 -1554 -701 -1830 -1524 -31 -93 -90 -339 -90
-375 0 -3 -150 -6 -332 -6 l-333 0 403 -402 402 -403 402 403 403 402 -303 0
c-281 0 -302 1 -302 18 0 9 11 63 25 120 87 361 300 715 580 964 230 206 496
350 785 427 312 83 662 84 976 1 739 -195 1298 -821 1408 -1577 21 -146 21
-400 0 -546 -95 -655 -533 -1223 -1143 -1485 -363 -156 -783 -196 -1166 -111
-266 59 -537 186 -759 357 -80 62 -232 208 -286 276 -25 31 -49 56 -55 56 -8
0 -221 -162 -249 -190 -19 -18 188 -242 345 -372 161 -134 423 -284 633 -362
141 -53 340 -102 495 -121 167 -22 516 -17 656 9 380 69 696 206 994 429 123
92 336 305 428 428 224 299 359 612 429 994 27 144 27 586 0 730 -70 381 -205
694 -429 994 -92 123 -305 336 -428 428 -298 223 -614 360 -989 428 -129 24
-535 30 -670 10z"/>
<path d="M2550 2958 c0 -372 4 -577 11 -603 9 -34 74 -103 427 -458 l417 -417
117 117 118 118 -380 380 -380 380 0 523 0 522 -165 0 -165 0 0 -562z"/>
</g>
</svg>
