<svg width="19" height="19" viewBox="0 0 19 19" fill="none" xmlns="http://www.w3.org/2000/svg">
<path d="M13.0003 11.9998C10.7903 13.3328 7.20827 13.3328 5.00027 11.9998M16.0003 5.70977L10.6673 1.56177C10.1993 1.19768 9.62323 1 9.03027 1C8.43732 1 7.86128 1.19768 7.39327 1.56177L2.05927 5.70977C1.73872 5.95905 1.47937 6.2783 1.30103 6.64312C1.12269 7.00794 1.03008 7.40869 1.03027 7.81477V15.0148C1.03027 15.5452 1.24099 16.0539 1.61606 16.429C1.99113 16.8041 2.49984 17.0148 3.03027 17.0148H15.0303C15.5607 17.0148 16.0694 16.8041 16.4445 16.429C16.8196 16.0539 17.0303 15.5452 17.0303 15.0148V7.81477C17.0303 6.99177 16.6503 6.21477 16.0003 5.70977Z" stroke="#818181" stroke-width="2" stroke-linecap="round" stroke-linejoin="round"/>
</svg>
