<svg width="22" height="22" viewBox="0 0 22 22" fill="none" xmlns="http://www.w3.org/2000/svg">
<path d="M11 11.917V17.417" stroke="#00A6F7" stroke-width="2" stroke-miterlimit="10"/>
<path d="M17.2332 6.04965L12.1 2.1997C11.7827 1.96169 11.3968 1.83301 11.0001 1.83301C10.6034 1.83301 10.2172 1.96169 9.8999 2.1997L4.7667 6.04965C4.42516 6.30581 4.14794 6.63795 3.95701 7.01981C3.76608 7.40166 3.66675 7.82275 3.66675 8.24967V18.333C3.66675 18.8192 3.85982 19.2855 4.20363 19.6293C4.54745 19.9732 5.01385 20.1663 5.50008 20.1663H16.5001C16.9863 20.1663 17.4525 19.9732 17.7963 19.6293C18.1401 19.2855 18.3334 18.8192 18.3334 18.333V8.24967C18.3334 7.82275 18.2339 7.40166 18.0429 7.01981C17.852 6.63795 17.5748 6.30581 17.2332 6.04965V6.04965Z" stroke="#00A6F7" stroke-width="2" stroke-miterlimit="10"/>
</svg>
