<svg width="84" height="84" viewBox="0 0 84 84" fill="none" xmlns="http://www.w3.org/2000/svg">
<rect width="84" height="84" rx="22" fill="#00A6F7"/>
<g clip-path="url(#clip0_249_2872)">
<path d="M44.0491 65.3273C40.2374 66.0006 36.4122 64.2188 34.4694 60.8656L18.2544 32.8796C15.0357 27.3244 18.3168 20.2561 24.6309 19.1409C28.4426 18.4675 32.2678 20.2493 34.2106 23.6026L50.4256 51.5885C53.6444 57.1431 50.3633 64.212 44.0491 65.3273Z" fill="white"/>
<path d="M58.6662 37.5704C63.7855 37.5704 67.9355 33.4133 67.9355 28.2852C67.9355 23.1571 63.7855 19 58.6662 19C53.5469 19 49.3969 23.1571 49.3969 28.2852C49.3969 33.4133 53.5469 37.5704 58.6662 37.5704Z" fill="white"/>
</g>
<defs>
<clipPath id="clip0_249_2872">
<rect width="50.9362" height="46.4681" fill="white" transform="translate(17 19)"/>
</clipPath>
</defs>
</svg>
