<svg width="17" height="17" viewBox="0 0 17 17" fill="none" xmlns="http://www.w3.org/2000/svg">
<g clip-path="url(#clip0_606_3525)">
<path d="M15.9697 7.93684L12.9645 4.93166C12.8905 4.85766 12.8027 4.79895 12.706 4.7589C12.6093 4.71886 12.5057 4.69824 12.401 4.69824C12.2964 4.69824 12.1928 4.71886 12.0961 4.7589C11.9994 4.79895 11.9115 4.85766 11.8375 4.93166C11.6881 5.0811 11.6041 5.28379 11.6041 5.49513C11.6041 5.70647 11.6881 5.90916 11.8375 6.0586L13.4824 7.70345H4.78125C4.56991 7.70345 4.36722 7.78741 4.21777 7.93685C4.06833 8.0863 3.98438 8.28898 3.98438 8.50033C3.98438 8.71167 4.06833 8.91436 4.21777 9.0638C4.36722 9.21325 4.56991 9.2972 4.78125 9.2972H13.4824L11.8375 10.9421C11.6881 11.0915 11.6041 11.2942 11.6042 11.5055C11.6042 11.7169 11.6881 11.9196 11.8376 12.069C11.987 12.2185 12.1897 12.3024 12.401 12.3024C12.6124 12.3024 12.8151 12.2184 12.9645 12.069L15.9697 9.06378C16.1192 8.91434 16.2031 8.71165 16.2031 8.50031C16.2031 8.28897 16.1192 8.08628 15.9697 7.93684Z" fill="#00A6F7"/>
<path d="M10.0938 13.0156C9.88241 13.0156 9.67972 13.0996 9.53027 13.249C9.38083 13.3985 9.29688 13.6012 9.29688 13.8125V14.6094H2.39062V2.39062H9.29688V3.1875C9.29688 3.39884 9.38083 3.60153 9.53027 3.75098C9.67972 3.90042 9.88241 3.98438 10.0938 3.98438C10.3051 3.98438 10.5078 3.90042 10.6572 3.75098C10.8067 3.60153 10.8906 3.39884 10.8906 3.1875V2.125C10.8906 1.95059 10.8563 1.77788 10.7895 1.61675C10.7228 1.45561 10.625 1.3092 10.5016 1.18587C10.3783 1.06255 10.2319 0.964717 10.0708 0.897973C9.90962 0.831228 9.73691 0.796875 9.5625 0.796875H2.125C1.77276 0.796875 1.43495 0.936802 1.18587 1.18587C0.936802 1.43495 0.796875 1.77276 0.796875 2.125V14.875C0.796875 15.2272 0.936802 15.5651 1.18587 15.8141C1.43495 16.0632 1.77276 16.2031 2.125 16.2031H9.5625C9.73691 16.2031 9.90962 16.1688 10.0708 16.102C10.2319 16.0353 10.3783 15.9375 10.5016 15.8141C10.625 15.6908 10.7228 15.5444 10.7895 15.3833C10.8563 15.2221 10.8906 15.0494 10.8906 14.875V13.8125C10.8906 13.6012 10.8067 13.3985 10.6572 13.249C10.5078 13.0996 10.3051 13.0156 10.0938 13.0156Z" fill="#00A6F7"/>
</g>
<defs>
<clipPath id="clip0_606_3525">
<rect width="17" height="17" fill="white"/>
</clipPath>
</defs>
</svg>
