<?xml version="1.0" standalone="no"?>
<!DOCTYPE svg PUBLIC "-//W3C//DTD SVG 20010904//EN"
 "http://www.w3.org/TR/2001/REC-SVG-20010904/DTD/svg10.dtd">
<svg version="1.0" xmlns="http://www.w3.org/2000/svg"
 width="512.000000pt" height="512.000000pt" viewBox="0 0 512.000000 512.000000"
 preserveAspectRatio="xMidYMid meet">
<metadata>
Created by potrace 1.16, written by Peter Selinger 2001-2019
</metadata>
<g transform="translate(0.000000,512.000000) scale(0.100000,-0.100000)"
fill="#000000" stroke="none">
<path d="M625 5105 c-155 -34 -271 -100 -391 -219 -101 -101 -156 -188 -202
-321 l-27 -80 0 -545 0 -545 27 -80 c46 -132 101 -220 202 -321 101 -101 189
-156 321 -202 l80 -27 545 0 545 0 80 27 c132 46 220 101 321 202 101 101 156
189 202 321 l27 80 0 545 0 545 -27 80 c-46 132 -101 220 -202 321 -101 101
-189 156 -321 201 l-80 28 -520 2 c-405 1 -533 -1 -580 -12z m980 -395 c182
-26 319 -163 345 -345 13 -91 13 -759 0 -850 -26 -182 -163 -319 -345 -345
-91 -13 -759 -13 -850 0 -182 26 -319 163 -345 345 -13 91 -13 759 0 850 26
178 163 319 335 344 84 12 775 13 860 1z"/>
<path d="M3385 5105 c-155 -34 -271 -100 -391 -219 -101 -101 -156 -188 -202
-321 l-27 -80 0 -545 0 -545 27 -80 c46 -132 101 -220 202 -321 101 -101 189
-156 321 -202 l80 -27 545 0 545 0 80 27 c132 46 220 101 321 202 101 101 156
189 202 321 l27 80 0 545 0 545 -27 80 c-46 132 -101 220 -202 321 -101 101
-189 156 -321 201 l-80 28 -520 2 c-405 1 -533 -1 -580 -12z m980 -395 c182
-26 319 -163 345 -345 5 -38 10 -230 10 -425 0 -195 -5 -386 -10 -425 -26
-182 -163 -319 -345 -345 -91 -13 -759 -13 -850 0 -182 26 -319 163 -345 345
-13 91 -13 759 0 850 26 178 163 319 335 344 84 12 775 13 860 1z"/>
<path d="M625 2345 c-155 -34 -271 -100 -391 -219 -101 -101 -156 -188 -202
-321 l-27 -80 0 -545 0 -545 27 -80 c46 -132 101 -220 202 -321 101 -101 189
-156 321 -202 l80 -27 545 0 545 0 80 27 c132 46 220 101 321 202 101 101 156
189 202 321 l27 80 0 545 0 545 -27 80 c-46 132 -101 220 -202 321 -101 101
-189 156 -321 201 l-80 28 -520 2 c-405 1 -533 -1 -580 -12z m980 -395 c91
-13 168 -51 231 -114 63 -63 101 -140 114 -231 13 -91 13 -759 0 -850 -26
-182 -163 -319 -345 -345 -91 -13 -759 -13 -850 0 -182 26 -319 163 -345 345
-13 91 -13 759 0 850 26 178 163 319 335 344 84 12 775 13 860 1z"/>
<path d="M3385 2345 c-154 -34 -271 -99 -391 -219 -101 -101 -156 -188 -202
-321 l-27 -80 0 -545 0 -545 27 -80 c46 -132 101 -220 202 -321 101 -101 189
-156 321 -202 l80 -27 545 0 545 0 80 27 c132 46 220 101 321 202 150 150 221
306 231 508 5 96 4 110 -17 153 -62 129 -268 144 -347 24 -18 -27 -29 -65 -39
-136 -18 -120 -50 -190 -118 -259 -63 -63 -140 -101 -231 -114 -91 -13 -759
-13 -850 0 -182 26 -319 163 -345 345 -5 39 -10 230 -10 425 0 195 5 387 10
425 26 182 163 319 345 345 91 13 759 13 850 0 38 -6 93 -21 122 -35 66 -30
152 -115 187 -182 51 -101 112 -139 216 -131 149 11 224 159 155 307 -75 161
-233 313 -404 388 -137 61 -160 63 -701 62 -370 0 -510 -4 -555 -14z"/>
</g>
</svg>
