<svg width="12" height="13" viewBox="0 0 12 13" fill="none" xmlns="http://www.w3.org/2000/svg">
<g clip-path="url(#clip0_636_3862)">
<path d="M7.98779 -0.22168H3.99506C3.29044 -0.220881 2.71945 0.350109 2.71875 1.05473V10.502C2.71945 11.2066 3.29044 11.7776 3.99506 11.7783H7.98779C8.69242 11.7776 9.26341 11.2066 9.2642 10.502V1.05473C9.26341 0.350109 8.69242 -0.220881 7.98779 -0.22168V-0.22168ZM5.99148 10.6874C5.69015 10.6874 5.44596 10.4432 5.44596 10.1419C5.44596 9.8407 5.69015 9.5965 5.99148 9.5965C6.2927 9.5965 6.5369 9.8407 6.5369 10.1419C6.5369 10.4432 6.2927 10.6874 5.99148 10.6874ZM6.80966 1.41468H5.1733C5.02268 1.41468 4.90053 1.29254 4.90053 1.14192C4.90053 0.991311 5.02268 0.869263 5.1733 0.869263H6.80966C6.96027 0.869263 7.08232 0.991311 7.08232 1.14192C7.08232 1.29254 6.96027 1.41468 6.80966 1.41468Z" fill="#00A6F7"/>
</g>
<defs>
<clipPath id="clip0_636_3862">
<rect width="12" height="12" fill="white" transform="translate(0 0.556641)"/>
</clipPath>
</defs>
</svg>
