<svg width="15" height="15" viewBox="0 0 15 15" fill="none" xmlns="http://www.w3.org/2000/svg">
<g clip-path="url(#clip0_626_3284)">
<path d="M11.25 14.9998C11.1875 14.9998 11.125 14.9873 11.0662 14.9623C10.9212 14.9005 7.5 13.4105 7.5 10.3461V7.83484C7.5 7.63422 7.6275 7.45609 7.81812 7.39109L11.0994 6.27484C11.1969 6.24172 11.3031 6.24172 11.4006 6.27484L14.6819 7.39109C14.8725 7.45609 15 7.63422 15 7.83484V10.3461C15 13.4105 11.5788 14.9005 11.4338 14.963C11.375 14.9873 11.3125 14.9998 11.25 14.9998V14.9998ZM8.4375 8.17047V10.3455C8.4375 12.4286 10.5975 13.6811 11.25 14.0111C11.9025 13.6811 14.0625 12.4286 14.0625 10.3455V8.17047L11.25 7.21359L8.4375 8.17047Z" fill="#00A6F7"/>
<path d="M11.0936 12.1875C10.9698 12.1875 10.8498 12.1387 10.7623 12.05L9.51234 10.8C9.32922 10.6168 9.32922 10.32 9.51234 10.1368C9.69547 9.95371 9.99234 9.95371 10.1755 10.1368L11.0436 11.005L12.5936 8.93746C12.7473 8.73058 13.0423 8.68808 13.2498 8.84433C13.4567 8.99933 13.4986 9.29308 13.343 9.50058L11.468 12.0006C11.3867 12.1093 11.2623 12.1768 11.1261 12.1868C11.1155 12.1868 11.1048 12.1875 11.0936 12.1875Z" fill="#00A6F7"/>
<path d="M6.61875 13.125H1.71875C0.770625 13.125 0 12.3544 0 11.4062V1.71875C0 0.770625 0.770625 0 1.71875 0H8.90625C9.85438 0 10.625 0.770625 10.625 1.71875V5.1125C10.625 5.37125 10.415 5.58125 10.1563 5.58125C9.8975 5.58125 9.6875 5.37125 9.6875 5.1125V1.71875C9.6875 1.28812 9.33688 0.9375 8.90625 0.9375H1.71875C1.28813 0.9375 0.9375 1.28812 0.9375 1.71875V11.4062C0.9375 11.8369 1.28813 12.1875 1.71875 12.1875H6.61875C6.8775 12.1875 7.0875 12.3975 7.0875 12.6562C7.0875 12.915 6.8775 13.125 6.61875 13.125Z" fill="#00A6F7"/>
<path d="M8.28125 5.9375H2.34375C2.085 5.9375 1.875 5.7275 1.875 5.46875C1.875 5.21 2.085 5 2.34375 5H8.28125C8.54 5 8.75 5.21 8.75 5.46875C8.75 5.7275 8.54 5.9375 8.28125 5.9375Z" fill="#00A6F7"/>
<path d="M5.78125 8.4375H2.34375C2.085 8.4375 1.875 8.2275 1.875 7.96875C1.875 7.71 2.085 7.5 2.34375 7.5H5.78125C6.04 7.5 6.25 7.71 6.25 7.96875C6.25 8.2275 6.04 8.4375 5.78125 8.4375Z" fill="#00A6F7"/>
<path d="M5.15625 3.4375H2.34375C2.085 3.4375 1.875 3.2275 1.875 2.96875C1.875 2.71 2.085 2.5 2.34375 2.5H5.15625C5.415 2.5 5.625 2.71 5.625 2.96875C5.625 3.2275 5.415 3.4375 5.15625 3.4375Z" fill="#00A6F7"/>
</g>
<defs>
<clipPath id="clip0_626_3284">
<rect width="15" height="15" fill="white"/>
</clipPath>
</defs>
</svg>
