<svg width="202" height="174" viewBox="0 0 202 174" fill="none" xmlns="http://www.w3.org/2000/svg">
<path d="M97.9644 136.196H68.4229V162.953H97.9644V136.196Z" fill="#255084"/>
<path d="M97.9644 120.493H68.4229V150.882H97.9644V120.493Z" fill="#1D3F70"/>
<path d="M128.458 168.194H37.9299C36.1127 168.194 34.6396 166.721 34.6396 164.904C34.6396 163.086 36.1127 161.613 37.9299 161.613H128.458C130.275 161.613 131.748 163.086 131.748 164.904C131.748 166.721 130.275 168.194 128.458 168.194Z" fill="#1D3F70"/>
<path d="M0 139.833V42.7996C0 39.1115 2.9898 36.1216 6.67802 36.1216H159.984C163.672 36.1216 166.662 39.1114 166.662 42.7996V139.833C166.662 143.521 163.672 146.511 159.984 146.511H6.67791C2.9898 146.511 0 143.521 0 139.833Z" fill="#255084"/>
<path d="M159.998 42.5327H6.38867V132.246H159.998V42.5327Z" fill="#B0C7F5"/>
<path d="M85.6609 142.702C87.0248 141.338 87.0248 139.126 85.6609 137.762C84.2969 136.398 82.0855 136.398 80.7216 137.762C79.3577 139.126 79.3576 141.338 80.7216 142.702C82.0855 144.066 84.2969 144.066 85.6609 142.702Z" fill="#1D3F70"/>
<path d="M112.675 135.522C112.675 135.522 113.91 127.284 118.64 121.384C118.64 121.384 118.906 124.042 119.331 125.53C119.331 125.53 121.563 123.989 123.423 123.457C123.423 123.457 121.563 130.419 115.876 136.319L112.675 135.522Z" fill="#CE3932"/>
<path d="M114.757 135.791C114.757 135.791 113.707 125.625 111.049 118.663C111.049 118.663 109.986 121.426 109.614 122.596L105.947 119.938C105.947 119.938 108.445 128.017 111.156 136.308L114.757 135.791Z" fill="#CE3932"/>
<path d="M125.856 132.285C125.856 132.285 129.274 133.17 129.473 135.92C129.626 138.031 123.973 137.332 123.973 137.332C123.973 137.332 128.278 138.408 130.55 137.443C132.822 136.478 133.181 135.641 132.344 133.807C131.506 131.974 129.912 128.865 127.799 129.582C125.687 130.3 125.856 132.285 125.856 132.285Z" fill="#CE3932"/>
<path d="M133.767 141.341H93.3711V172.274H133.767V141.341Z" fill="#9358E0"/>
<path d="M133.767 141.341H93.3711V146.082H133.767V141.341Z" fill="#7640CC"/>
<path d="M135.094 138.739H92.0439V144.001H135.094V138.739Z" fill="#9358E0"/>
<path d="M117.994 138.739H109.145C109.145 136.962 110.585 135.521 112.362 135.521H114.776C116.553 135.521 117.994 136.962 117.994 138.739Z" fill="#EB5648"/>
<path d="M124.093 127.337C117.396 128.559 113.569 135.521 113.569 135.521L117.396 138.739C127.8 138.739 131.427 138.739 133.029 136.637C134.639 134.525 130.789 126.114 124.093 127.337ZM131.227 136.357C129.088 137.637 123.482 137.634 118.432 136.478C118.432 136.478 124.782 131.24 129.434 131.854C131.547 132.133 132.623 135.521 131.227 136.357Z" fill="#EB5648"/>
<path d="M101.429 132.285C101.429 132.285 98.0113 133.17 97.812 135.92C97.6591 138.031 103.313 137.332 103.313 137.332C103.313 137.332 99.0079 138.408 96.7358 137.443C94.4637 136.478 94.1049 135.641 94.9421 133.807C95.7791 131.974 97.3736 128.865 99.4863 129.582C101.599 130.3 101.429 132.285 101.429 132.285Z" fill="#CE3932"/>
<path d="M94.2565 136.637C95.8584 138.739 99.4858 138.739 109.889 138.739L113.716 135.521C113.716 135.521 109.889 128.559 103.193 127.337C96.4962 126.114 92.6466 134.525 94.2565 136.637ZM97.8514 131.854C102.503 131.24 108.853 136.478 108.853 136.478C103.804 137.634 98.1976 137.637 96.0589 136.357C94.6625 135.521 95.7388 132.133 97.8514 131.854Z" fill="#EB5648"/>
<path d="M97.6457 155.94C97.6457 158.141 95.8614 159.925 93.6603 159.925C93.5632 159.925 93.4668 159.922 93.3711 159.915V151.966C93.4669 151.959 93.5633 151.955 93.6603 151.955C95.8615 151.955 97.6457 153.739 97.6457 155.94Z" fill="#7640CC"/>
<path d="M107.827 151.443C108.18 149.27 106.705 147.223 104.532 146.87C102.359 146.518 100.312 147.993 99.9597 150.166C99.6071 152.338 101.083 154.385 103.255 154.738C105.428 155.091 107.475 153.615 107.827 151.443Z" fill="#7640CC"/>
<path d="M103.889 167.244C106.09 167.244 107.874 165.46 107.874 163.259C107.874 161.058 106.09 159.273 103.889 159.273C101.688 159.273 99.9033 161.058 99.9033 163.259C99.9033 165.46 101.688 167.244 103.889 167.244Z" fill="#7640CC"/>
<path d="M97.3667 171.158C97.3667 171.545 97.3117 171.92 97.2082 172.274H93.3711V167.172H93.3811C95.5825 167.172 97.3667 168.957 97.3667 171.158Z" fill="#7640CC"/>
<path d="M115.264 172.274H107.294C107.294 170.073 109.078 168.289 111.279 168.289C113.48 168.289 115.264 170.073 115.264 172.274Z" fill="#7640CC"/>
<path d="M116.495 161.977C118.696 161.977 120.48 160.193 120.48 157.992C120.48 155.791 118.696 154.007 116.495 154.007C114.294 154.007 112.51 155.791 112.51 157.992C112.51 160.193 114.294 161.977 116.495 161.977Z" fill="#7640CC"/>
<path d="M125.452 154.987C127.653 154.987 129.437 153.203 129.437 151.002C129.437 148.801 127.653 147.017 125.452 147.017C123.251 147.017 121.467 148.801 121.467 151.002C121.467 153.203 123.251 154.987 125.452 154.987Z" fill="#7640CC"/>
<path d="M128.406 167.883C128.758 165.71 127.283 163.663 125.11 163.311C122.938 162.958 120.89 164.434 120.538 166.606C120.185 168.779 121.661 170.826 123.833 171.178C126.006 171.531 128.053 170.056 128.406 167.883Z" fill="#7640CC"/>
<path d="M133.767 155.878V163.719C133.533 163.762 133.293 163.784 133.048 163.784C130.847 163.784 129.062 162 129.062 159.799C129.062 157.598 130.847 155.813 133.048 155.813C133.293 155.813 133.534 155.835 133.767 155.878Z" fill="#7640CC"/>
<path d="M117.396 138.073H109.742V172.274H117.396V138.073Z" fill="#EB5648"/>
<path d="M35.326 56.8374C35.3267 56.8375 47.3886 51.4255 48.4919 71.5689C49.4515 89.0899 51.7254 108.809 39.885 118.266C30.3195 125.907 11.5003 127.423 8.04061 113.229C6.01794 104.93 11.1545 96.3686 13.5813 86.6667C15.9574 77.1678 15.4797 55.2919 35.326 56.8374Z" fill="#662948"/>
<path d="M64.7494 113.461C60.9934 114.734 56.6591 115.315 51.7172 114.964C48.3967 114.727 44.8037 114.071 40.9249 112.925L40.7351 109.263L39.9334 93.8415L39.7324 89.9604C39.7324 89.9604 40.3286 89.8911 41.2845 89.871C43.3523 89.8219 47.1015 89.9983 50.0806 91.5838C54.2742 93.8169 58.7426 95.6435 62.6438 94.7101C63.5862 94.4868 64.4973 94.1005 65.3615 93.5177C66.9916 92.4257 68.0876 90.4356 69.6914 87.9395C73.0292 82.7445 75.545 74.5239 75.545 74.5239L82.6121 72.9839C86.8907 87.049 82.3282 107.503 64.7494 113.461Z" fill="#3A72AA"/>
<path d="M40.1922 86.0633L39.6663 89.9993C38.2601 94.5734 32.1778 90.9903 31.1709 89.1769L32.0897 83.4785L40.1922 86.0633Z" fill="#F99370"/>
<path d="M45.1172 94.7954C45.1172 94.7954 49.889 100.733 52.6257 104.838C55.3624 108.943 55.6197 111.905 55.6197 111.905L47.7224 112.592L45.1172 94.7954Z" fill="#23659B"/>
<path d="M32.0368 76.6887C32.04 76.8359 32.0482 76.9856 32.065 77.1311C32.2738 77.0259 32.1203 82.2633 31.6709 86.0724C35.0568 88.1266 39.2027 87.9613 39.9512 87.8984C40.6049 83.0833 40.6859 78.6354 40.3062 75.7909C39.4119 70.9476 31.8721 71.7744 32.0368 76.6887Z" fill="#E57D61"/>
<path d="M26.5581 73.7785C27.2174 77.5247 28.5464 81.7386 31.5485 84.1792H31.5533C32.766 85.1571 34.2357 85.7697 35.7877 86.0519C44.5031 88.4355 54.7553 77.9542 47.7632 70.7222C45.2414 68.4591 44.6549 64.3939 42.6382 62.1359C39.6926 57.992 33.3653 58.3009 29.9959 61.7633C26.9511 64.8936 25.9556 69.1624 26.5581 73.7785Z" fill="#F99370"/>
<path d="M40.859 71.2559C41.1933 70.5983 40.1526 70.0888 39.8378 70.7558C39.5035 71.4134 40.5442 71.9229 40.859 71.2559Z" fill="#C16256"/>
<path d="M45.6276 70.3834C45.9619 69.7258 44.9212 69.2162 44.6064 69.8833C44.2721 70.5409 45.3128 71.0504 45.6276 70.3834Z" fill="#C16256"/>
<path d="M44.2197 75.3283C43.8697 75.3359 43.1012 75.479 43.1147 75.0034C43.1493 74.8896 43.2705 74.8256 43.3832 74.8603C44.1082 75.0808 45.1243 74.7044 45.259 74.3762C45.3064 74.2605 45.1499 74.1492 45.0103 74.0762C43.7956 73.4877 42.1845 70.1186 43.2979 70.8921C43.3062 70.9145 44.1281 73.1293 45.2095 73.6949C46.4316 74.5129 45.1797 75.1771 44.2197 75.3283Z" fill="#C16256"/>
<path d="M26.5587 73.7788C27.2181 77.5249 28.547 81.7388 31.5491 84.1795H31.554C29.8805 82.1626 28.7894 77.6118 28.7894 77.6118L29.5372 75.5698C42.5179 71.1737 41.2025 60.6403 41.2025 60.6403C32.7945 54.7933 24.7208 65.2042 26.5587 73.7788Z" fill="#E57D61"/>
<path d="M39.8497 59.8074C39.8497 59.8074 41.0476 70.1172 29.4375 74.524L25.2156 72.2731C21.0147 64.3167 28.2454 52.4477 39.8497 59.8074Z" fill="#662948"/>
<path d="M26.1828 56.8242C29.03 66.6174 40.4375 63.4868 37.8855 53.6127C35.0384 43.8197 23.6308 46.9504 26.1828 56.8242Z" fill="#662948"/>
<path d="M24.1996 75.7099C25.1089 79.9445 30.4415 78.7373 29.437 74.5238C28.5278 70.2894 23.1951 71.4966 24.1996 75.7099Z" fill="#F99370"/>
<path d="M25.5929 76.5706C24.696 75.656 25.0179 73.7865 25.476 73.4591C26.3171 72.7722 27.8404 73.1157 27.7336 73.5465C27.4689 73.9768 26.5942 73.081 25.7724 73.7712C24.9298 74.4117 26.0952 76.2062 25.5929 76.5706Z" fill="#C16256"/>
<path d="M27.5971 76.2409C27.1569 76.2235 26.9727 74.6269 25.2802 74.4803C25.1616 74.4742 25.0702 74.3729 25.0765 74.2542C26.2502 73.3445 28.4019 76.3189 27.5971 76.2409Z" fill="#C16256"/>
<path d="M26.5803 77.6443C26.5802 78.2709 27.5646 78.2567 27.5463 77.6303C27.5464 77.0038 26.562 77.0181 26.5803 77.6443Z" fill="#F4D4BE"/>
<path d="M52.118 112.209C52.0518 113.122 51.9163 114.043 51.7178 114.964C51.451 115.953 51.1656 116.912 50.8739 117.849C50.5926 118.755 50.3041 119.639 50.0196 120.511C49.9038 120.864 49.79 121.214 49.6773 121.563C49.5791 121.866 49.4818 122.167 49.3866 122.468C49.3866 122.469 49.3855 122.47 49.3855 122.47C49.038 123.562 48.7091 124.642 48.4226 125.723C48.2343 126.427 48.0647 127.133 47.9189 127.843C47.6169 129.303 47.4218 130.897 47.3711 132.433H6.33301V127.908C7.09626 125.979 7.88235 123.966 8.44916 122.177C8.87532 120.796 9.35727 119.271 9.89404 117.653C11.1734 113.794 12.76 109.41 14.6176 105.214C18.3988 96.6742 23.3034 88.9121 29.0239 87.9388C29.8078 87.8064 30.6063 87.8002 31.4193 87.9368C33.2685 90.0829 37.749 93.5736 39.5331 90.3745C39.6034 90.2473 39.6706 90.1098 39.7328 89.9608C40.3761 90.1677 40.9842 90.4841 41.5614 90.8854C43.0155 91.8938 44.2701 93.439 45.3788 95.1228C45.3799 95.1238 45.3799 95.1248 45.3809 95.1259C46.6303 97.0269 47.6935 99.1037 48.645 100.79C49.0173 101.451 49.3731 102.051 49.7165 102.557C50.7394 104.153 51.4168 105.812 51.7933 107.511C51.812 107.593 51.8295 107.676 51.8461 107.757C51.8627 107.838 51.8792 107.919 51.8937 107.999C52.0229 108.683 52.1037 109.373 52.1399 110.068C52.178 110.778 52.1698 111.491 52.118 112.209Z" fill="#3A72AA"/>
<path d="M50.0811 120.5L50.0794 120.504C30.9609 122.768 23.2656 109.754 23.2656 109.754L51.2823 113.05C51.5198 115.775 50.8961 118.112 50.0811 120.5Z" fill="#D1A68F"/>
<path d="M43.6884 76.6489C43.5291 76.3562 43.254 76.0986 42.9137 75.9228C42.5734 75.7469 42.2042 75.6725 41.8732 75.7129C41.5133 75.7563 41.2382 75.928 41.0996 76.1969C40.961 76.4658 40.9797 76.7895 41.1534 77.1081C41.3127 77.4008 41.5877 77.6583 41.928 77.8342C42.2083 77.9789 42.5083 78.0545 42.7906 78.0545C42.8506 78.0545 42.9106 78.0514 42.9685 78.0442C43.3284 78.0008 43.6036 77.8291 43.7421 77.5602C43.8808 77.2912 43.8611 76.9674 43.6884 76.6489ZM43.374 77.3698C43.3005 77.5136 43.1392 77.6066 42.9189 77.6336C42.6696 77.6635 42.3852 77.6035 42.1173 77.466C41.8504 77.3285 41.6363 77.1308 41.5163 76.9106C41.4108 76.7162 41.3932 76.53 41.4667 76.3862C41.5411 76.2435 41.7025 76.1494 41.9228 76.1235C41.9652 76.1184 42.0086 76.1152 42.0521 76.1152C42.2683 76.1152 42.502 76.1763 42.7244 76.29C42.9912 76.4286 43.2053 76.6262 43.3253 76.8465C43.4309 77.0409 43.4484 77.227 43.374 77.3698Z" fill="#C16256"/>
<path d="M38.574 70.4648C38.5478 70.4648 38.5212 70.4598 38.4955 70.4492C38.3898 70.4058 38.3393 70.285 38.3828 70.1793C38.4096 70.114 39.0623 68.5733 40.8828 68.2035C40.9958 68.1804 41.1039 68.2532 41.1267 68.3651C41.1495 68.4771 41.0771 68.5862 40.9653 68.609C39.3585 68.9353 38.7712 70.3227 38.7654 70.3367C38.7325 70.4165 38.6553 70.4648 38.574 70.4648Z" fill="#C16256"/>
<path d="M45.7167 68.7541C45.6743 68.7541 45.6314 68.741 45.5945 68.7139C44.5647 67.9577 43.2584 68.2525 43.2453 68.2558C43.135 68.2818 43.023 68.2129 42.9967 68.1016C42.9706 67.9904 43.0397 67.8792 43.1509 67.853C43.2118 67.8387 44.6576 67.5126 45.8395 68.3805C45.9316 68.4481 45.9514 68.5776 45.8838 68.6697C45.8432 68.7248 45.7804 68.7541 45.7167 68.7541Z" fill="#C16256"/>
<path d="M34.6085 100.106C34.9912 130.913 60.2021 106.829 64.3646 91.4552C64.8667 89.8454 66.5551 89.1156 68.2001 89.4924C73.2986 90.6603 66.6003 106.816 64.8256 110.213C59.3314 121.655 45.3718 132.057 33.0031 123.778C24.9495 118.187 23.1538 107.552 24.1884 98.4997C25.0514 90.4183 34.6085 100.106 34.6085 100.106Z" fill="#F99370"/>
<path d="M98.8073 73.0038C99.3204 74.5607 97.999 76.1068 96.3812 75.8424L83.3353 73.713L69.7378 78.1934L72.6235 86.9468L69.6921 87.9392L66.7991 79.1617L62.526 80.5708L60.8278 81.1296L57.2002 70.124L58.9393 69.5507L79.7076 62.7074L88.9043 53.2651L88.9315 53.2371C90.0753 52.063 92.0567 52.5206 92.5696 54.0773L98.8073 73.0038Z" fill="#EB5648"/>
<path d="M73.0284 87.5252C73.1691 87.5 73.1997 87.4901 73.2713 87.4725C73.3328 87.4565 73.39 87.4394 73.4458 87.4214C73.5579 87.3857 73.6646 87.3443 73.7698 87.299C73.9792 87.2071 74.1816 87.0914 74.3694 86.9508C74.5571 86.8115 74.7293 86.645 74.8677 86.461C75.0115 86.2782 75.112 86.0797 75.1909 85.8818C75.4244 85.2956 75.0503 84.6619 74.3555 84.4664C73.8657 84.3287 73.3472 84.4454 73.002 84.7317L72.4781 85.1682C72.4677 85.1768 72.4892 85.1565 72.4845 85.1596C72.4845 85.1596 72.4759 85.167 72.4607 85.1736L72.4386 85.1817C72.4353 85.1827 72.434 85.1831 72.434 85.1831L72.4938 85.1719C71.7225 85.2979 71.2168 85.9269 71.3645 86.5768C71.5121 87.2265 72.2571 87.6513 73.0284 87.5252Z" fill="#F99370"/>
<path d="M72.5828 85.657C72.6905 85.6102 72.7206 85.5937 72.7802 85.5641L72.9285 85.4841C73.0244 85.43 73.1154 85.373 73.2052 85.3122C73.3841 85.1902 73.5567 85.0507 73.7194 84.8873C73.8819 84.7254 74.0321 84.5295 74.1537 84.3125C74.2773 84.0945 74.3576 83.8446 74.3972 83.5937C74.488 82.9344 73.9296 82.3483 73.15 82.2849C72.3703 82.2215 71.6647 82.7045 71.5739 83.3639C71.5729 83.3331 71.5971 83.3245 71.5508 83.3733C71.5281 83.3954 71.4936 83.4255 71.449 83.4559C71.4268 83.4709 71.4025 83.4864 71.3788 83.4996L71.3457 83.5177C71.3439 83.5193 71.3119 83.5332 71.3559 83.5143C70.6479 83.812 70.3486 84.5332 70.6873 85.1249C71.0262 85.7166 71.8748 85.9548 72.5828 85.657Z" fill="#F99370"/>
<path d="M72.4675 83.3218L73.4007 82.3634C73.9132 81.837 73.8499 81.08 73.2591 80.6726C72.6682 80.2652 71.7738 80.3617 71.2612 80.8881L70.328 81.8465C69.8154 82.3729 69.8788 83.1299 70.4696 83.5373C71.0604 83.9449 71.9549 83.8484 72.4675 83.3218Z" fill="#F99370"/>
<path d="M71.4519 81.4576L72.3851 80.4992C72.8977 79.9728 72.8344 79.2157 72.2434 78.8083C71.6526 78.4009 70.7582 78.4974 70.2455 79.0238L69.3123 79.9822C68.7998 80.5087 68.8631 81.2657 69.454 81.6731C70.0448 82.0806 70.9393 81.9841 71.4519 81.4576Z" fill="#F99370"/>
<path d="M70.0538 93.854C70.0538 93.854 73.5327 89.0614 74.3679 86.9508C74.3679 86.9508 72.1169 77.8198 70.5544 78.7837C68.992 79.7475 63.2151 84.5049 64.3316 91.6637C64.3316 91.6637 67.9205 90.4771 70.0538 93.854Z" fill="#F99370"/>
<path d="M96.3821 75.8429L88.9053 53.2656L88.9325 53.2376C90.0763 52.0635 92.0577 52.5211 92.5707 54.0778L98.8081 73.0043C99.3214 74.5612 97.9999 76.1073 96.3821 75.8429Z" fill="#D64343"/>
<path d="M62.526 80.5713L60.8278 81.1302L57.2002 70.1245L58.9393 69.5513L62.526 80.5713Z" fill="#D64343"/>
<path d="M64.1894 73.9634C64.1894 74.5044 63.7508 74.9429 63.2099 74.9429C62.6689 74.9429 62.2305 74.5044 62.2305 73.9634C62.2305 73.4224 62.669 72.9839 63.2099 72.9839C63.7507 72.9839 64.1894 73.4225 64.1894 73.9634Z" fill="#D64343"/>
<path d="M67.0684 72.9843C67.0684 73.5253 66.6299 73.9638 66.0889 73.9638C65.5479 73.9638 65.1094 73.5253 65.1094 72.9843C65.1094 72.4433 65.5479 72.0049 66.0889 72.0049C66.6299 72.0048 67.0684 72.4433 67.0684 72.9843Z" fill="#D64343"/>
<path d="M69.9462 72.0049C69.9462 72.5458 69.5077 72.9843 68.9667 72.9843C68.4257 72.9843 67.9873 72.5458 67.9873 72.0049C67.9873 71.4639 68.4258 71.0254 68.9667 71.0254C69.5077 71.0255 69.9462 71.4639 69.9462 72.0049Z" fill="#D64343"/>
<path d="M49.7054 121.572C48.8635 123.946 47.9301 126.436 47.5393 129.459C21.7675 133.409 15.2358 116.53 13.5811 107.723C14.108 106.425 14.6262 105.213 15.1331 104.078L36.1373 118.066C36.1373 118.066 43.723 119.562 49.7054 121.572Z" fill="#23659B"/>
<path d="M70.0736 94.3394C68.9413 105.683 63.8381 122.305 50.7509 126.951C34.6586 133.025 15.4627 122.542 14.6201 105.245C13.4542 91.3158 24.3247 87.8189 29.0544 87.9395C30.4464 88.5497 31.4883 90.0496 32.596 92.0483C36.1268 97.9354 35.6719 104.412 40.7352 109.263C50.0321 115.656 60.2268 98.1407 63.9863 92.5575C65.4445 94.3228 69.9927 94.6337 70.0736 94.3394Z" fill="#3A72AA"/>
<path d="M44.651 110.893C42.7685 110.893 41.2007 110.075 39.8736 108.436C37.9063 106.006 36.0096 101.245 35.9298 101.043C35.8844 100.929 35.9405 100.799 36.0552 100.753C36.17 100.708 36.2998 100.764 36.345 100.879C36.3643 100.927 38.2966 105.779 40.2207 108.155C41.8206 110.131 44.4071 111.963 50.2561 108.563C55.7096 105.393 62.4898 94.8792 62.5576 94.7732C62.6241 94.6694 62.7622 94.6391 62.866 94.7058C62.9698 94.7724 63.0001 94.9105 62.9336 95.0144C62.6542 95.4501 56.0275 105.725 50.4805 108.949C48.2535 110.244 46.3275 110.893 44.651 110.893Z" fill="#23659B"/>
<path d="M65.021 113.228C64.9857 113.228 64.9497 113.22 64.9163 113.202C64.8074 113.144 64.7662 113.009 64.824 112.9C69.006 105.045 69.3037 96.9297 69.3062 96.8486C69.3098 96.7254 69.411 96.6194 69.5362 96.6324C69.6595 96.6361 69.7563 96.7391 69.7526 96.8625C69.7501 96.9444 69.451 105.16 65.2183 113.11C65.1781 113.185 65.1009 113.228 65.021 113.228Z" fill="#23659B"/>
<path d="M70.0728 94.3395C70.0014 95.0987 69.8919 96.0255 69.7356 97.0773C69.731 97.113 69.7244 97.1487 69.7199 97.1844C68.1456 97.439 65.1734 97.4792 62.4111 95.0675C62.4513 95.0072 62.4871 94.9514 62.525 94.8934C63.4494 93.4754 63.9853 92.5576 63.9853 92.5576C66.7478 94.9916 70.0728 94.3395 70.0728 94.3395Z" fill="#23659B"/>
<path d="M39.9332 93.8417C39.4866 94.0426 38.9306 94.199 38.2361 94.2906C36.1705 94.5608 34.1876 93.4286 32.5954 92.0485C30.7999 90.4943 29.5048 88.6252 29.1519 88.0893C29.0872 87.9933 29.0537 87.9397 29.0537 87.9397C29.0537 87.9397 30.0082 87.5847 31.4185 87.9375C33.3413 90.1683 38.1088 93.8529 39.7323 89.9607C39.7323 89.9607 40.3285 89.8914 41.2843 89.8713C41.2977 89.9048 41.4741 90.2979 41.5545 90.8382C41.6951 91.7582 41.5656 93.1024 39.9332 93.8417Z" fill="#23659B"/>
<path d="M68.997 173.138C67.9688 173.132 9.27042 172.659 10.6782 172.671C6.64313 172.629 6.69666 164.877 10.7411 164.9C11.4846 164.912 66.6184 165.344 69.0592 165.368L69.0545 165.909L68.997 173.138Z" fill="#FCB4B4"/>
<path d="M13.6435 172.695C13.1558 172.698 11.2035 172.67 10.6784 172.671C7.77889 172.756 6.64548 167.85 8.65415 165.89H8.6549C9.6762 164.458 12.2439 164.996 13.7057 164.924L13.6435 172.695Z" fill="#EB5648"/>
<path d="M15.4248 167.788C15.6416 167.253 69.1062 167.685 69.3163 168.218C69.0977 168.752 15.6371 168.321 15.4248 167.788Z" fill="#F49F9F"/>
<path d="M68.9971 173.138C69.0071 171.831 69.0481 166.767 69.0593 165.368C71.5084 166.326 76.7921 168.393 79.1995 169.334C76.7912 170.232 71.4461 172.225 68.9971 173.138Z" fill="#FFE7D7"/>
<path d="M75.062 170.876C74.7155 169.892 74.7301 168.686 75.0872 167.726L79.1988 169.334L75.062 170.876Z" fill="#EB5648"/>
<path d="M69.0544 165.909L15.7168 165.671L15.7201 164.94L69.0591 165.368L69.0544 165.909Z" fill="#F9C0C0"/>
<path d="M12.8968 172.688L10.6784 172.671C7.77855 172.755 6.64567 167.85 8.65413 165.89H8.65488C8.65488 165.89 8.52952 170.947 12.9112 170.966L12.8968 172.688Z" fill="#CE3932"/>
<path d="M13.5828 173.471C13.2002 173.468 12.8932 173.155 12.8965 172.774L12.9114 170.941L12.9603 164.833C12.9543 163.934 14.3662 163.95 14.3433 164.844L14.2796 172.785C14.2772 173.167 13.965 173.474 13.5828 173.471Z" fill="#93ABE5"/>
<path d="M14.9656 173.482C14.5842 173.479 14.2768 173.167 14.2793 172.785L14.2942 170.951L14.3431 164.844C14.3377 163.947 15.7482 163.96 15.7269 164.855L15.6631 172.796C15.66 173.178 15.3478 173.485 14.9656 173.482Z" fill="#93ABE5"/>
<path d="M13.591 171.543C13.2408 171.54 12.9543 171.278 12.9111 170.941L12.96 164.833C12.9633 164.45 13.2754 164.143 13.6568 164.147C14.0071 164.15 14.2935 164.411 14.3367 164.748L14.2878 170.857C14.2856 171.239 13.973 171.546 13.591 171.543Z" fill="#BBCEEA"/>
<path d="M14.9748 171.554C14.6253 171.551 14.3381 171.289 14.2949 170.951L14.3438 164.843C14.347 164.462 14.6592 164.155 15.0414 164.158C15.3909 164.16 15.6781 164.422 15.7213 164.761L15.6724 170.868C15.6691 171.25 15.357 171.557 14.9748 171.554Z" fill="#BBCEEA"/>
<path d="M68.9968 173.138L15.6832 172.711L15.668 170.935L69.0056 171.173L68.9968 173.138Z" fill="#F49F9F"/>
<path d="M68.9971 173.138L69.0058 171.173C69.0064 171.172 79.1966 169.334 79.1995 169.333C76.7912 170.232 71.4461 172.225 68.9971 173.138Z" fill="#EDD5C5"/>
<path d="M75.0622 170.876C74.979 170.634 74.9146 170.379 74.8711 170.114L79.199 169.333L75.0622 170.876Z" fill="#CE3932"/>
<path d="M97.4764 55.1898L95.7627 53.8849L98.0462 50.8859L99.7599 52.1907L97.4764 55.1898ZM102.043 49.1918L100.33 47.8869L102.613 44.8879L104.327 46.1927L102.043 49.1918ZM106.61 43.1937L104.897 41.8889L107.18 38.8899L108.894 40.1946L106.61 43.1937ZM111.177 37.1957L109.464 35.8908L111.747 32.8917L113.461 34.1966L111.177 37.1957ZM115.744 31.1975L114.031 29.8927L116.193 27.0532L117.906 28.3581L115.744 31.1975Z" fill="white"/>
<path d="M163.337 77.7L159.62 77.0748L159.977 74.9507L163.694 75.5759L163.337 77.7ZM155.903 76.4497L152.186 75.8245L152.543 73.7003L156.26 74.3255L155.903 76.4497ZM148.468 75.1993L144.751 74.5741L145.108 72.45L148.826 73.0752L148.468 75.1993ZM141.034 73.9489L137.317 73.3237L137.674 71.1996L141.391 71.8248L141.034 73.9489ZM133.6 72.6985L129.882 72.0734L130.239 69.9492L133.957 70.5744L133.6 72.6985ZM126.165 71.4482L122.448 70.823L122.805 68.6989L126.522 69.324L126.165 71.4482ZM118.731 70.1978L115.013 69.5726L115.371 67.4485L119.088 68.0737L118.731 70.1978ZM111.296 68.9474L107.579 68.3222L107.936 66.1981L111.653 66.8233L111.296 68.9474ZM103.862 67.6971L100.145 67.0719L100.502 64.9478L104.219 65.5729L103.862 67.6971Z" fill="white"/>
<path d="M122.005 89.4658L119.014 87.1717L120.325 85.4626L123.315 87.7568L122.005 89.4658ZM116.023 84.8775L113.032 82.5833L114.343 80.8743L117.334 83.1684L116.023 84.8775ZM110.041 80.2892L107.05 77.9951L108.361 76.286L111.352 78.5802L110.041 80.2892ZM104.059 75.701L101.068 73.4068L102.379 71.6978L105.37 73.9919L104.059 75.701Z" fill="white"/>
<path d="M99.1948 60.9341L98.6455 58.8513L102.29 57.8904L102.84 59.9731L99.1948 60.9341ZM106.485 59.012L105.935 56.9293L109.58 55.9683L110.129 58.051L106.485 59.012ZM113.774 57.0901L113.225 55.0073L116.87 54.0463L117.419 56.1291L113.774 57.0901ZM121.064 55.1681L120.515 53.0853L124.16 52.1243L124.709 54.2071L121.064 55.1681ZM128.354 53.2461L127.804 51.1633L131.449 50.2023L131.999 52.2851L128.354 53.2461ZM135.643 51.3241L135.094 49.2414L138.739 48.2804L139.288 50.3631L135.643 51.3241ZM142.933 49.4021L142.384 47.3194L146.029 46.3584L146.578 48.4412L142.933 49.4021Z" fill="white"/>
<path d="M147.904 38.9346C147.898 49.6814 159.234 57.4286 169.143 53.831C175.627 51.6092 180.13 45.4474 180.001 38.3411C179.252 17.2572 147.872 17.8309 147.904 38.9346Z" fill="#8A9EDD"/>
<path d="M165.854 43.7233L161.374 43.8062L161.472 49.0966L165.952 49.0137L165.854 43.7233Z" fill="#EA876C"/>
<path d="M167.216 48.0972C167.644 49.5171 168.523 52.1 169.143 53.8312C171.201 53.1313 173.104 52.0019 174.704 50.5568C172.363 49.1046 169.817 48.2121 167.216 48.0972Z" fill="#EB5648"/>
<path d="M153.521 50.8374C155.029 52.1305 156.798 53.1516 158.691 53.807C159.226 52.1119 159.968 49.6281 160.336 48.2246C157.918 48.5815 155.622 49.4998 153.521 50.8374Z" fill="#EB5648"/>
<path d="M169.143 53.8314C169.543 53.6951 169.936 53.5431 170.32 53.3773C169.329 51.5975 168.324 49.8945 167.216 48.0973C167.216 48.0973 167.347 46.8308 165.906 46.1821C165.906 46.1821 163.883 46.7442 161.425 46.2504C161.425 46.2504 160.027 46.8832 160.327 48.2021C159.373 49.9646 158.49 51.6535 157.624 53.3929C161.138 54.9431 165.504 55.1087 169.143 53.8314Z" fill="#EB5648"/>
<path d="M156.141 37.2008C156.731 39.7029 159.787 38.9977 159.221 36.49C158.63 33.9879 155.575 34.6932 156.141 37.2008Z" fill="#F99370"/>
<path d="M171.131 36.9237C170.633 39.4459 167.554 38.8541 168.027 36.3272C168.524 33.805 171.604 34.3969 171.131 36.9237Z" fill="#F99370"/>
<path d="M157.38 39.8929C157.886 48.2986 171.354 46.8158 169.866 38.3928C169.651 36.7209 169.031 35.6179 168.7 32.9524C167.935 26.783 159.144 26.6164 158.474 33.0953C158.211 35.6511 157.317 37.5483 157.38 39.8929Z" fill="#F99370"/>
<path d="M161.924 36.0209C162.119 35.633 161.506 35.3353 161.322 35.7288C161.127 36.1168 161.741 36.4144 161.924 36.0209Z" fill="#C16256"/>
<path d="M165.935 35.9545C166.13 35.5666 165.517 35.2689 165.333 35.6624C165.138 36.0504 165.751 36.348 165.935 35.9545Z" fill="#C16256"/>
<path d="M163.958 38.6145C164.571 38.5959 165.515 38.1653 164.731 37.6352C164.092 37.3043 163.603 36.0028 163.598 35.9897C163.544 35.8355 163.301 35.9238 163.361 36.0777C163.382 36.1349 163.889 37.4846 164.614 37.8601C165.116 38.1548 164.087 38.4681 163.658 38.3257C163.591 38.3054 163.521 38.3436 163.501 38.4106C163.469 38.6387 163.799 38.6005 163.958 38.6145Z" fill="#C16256"/>
<path d="M167.686 32.5785C164.677 34.0441 161.11 29.5191 159.29 31.6578L159.039 30.3765L162.547 28.6509L168.231 30.5125L167.686 32.5785Z" fill="#E57D61"/>
<path d="M158.139 35.0494C158.139 35.0494 159.159 33.0004 159.29 31.6581C159.421 30.3159 161.215 30.0491 162.712 31.0704C164.209 32.0917 166.062 32.5341 167.986 31.7835C169.911 31.0327 171.11 28.0716 169.107 26.375C167.124 24.6952 165.118 26.0698 163.375 26.7671C161.125 27.667 155.4 26.0416 158.139 35.0494Z" fill="#8C4225"/>
<path d="M168.99 34.7523C168.99 34.7523 167.373 32.9868 167.233 30.6054L168.918 29.9067C168.918 29.9067 169.652 32.2125 168.99 34.7523Z" fill="#8C4225"/>
<path d="M156.792 37.6899C156.874 37.6894 156.934 37.6054 156.908 37.5279C156.452 36.3018 156.889 35.6625 157.871 36.0181C158.743 35.7229 155.657 34.942 156.673 37.6046C156.69 37.6575 156.739 37.6909 156.792 37.6899Z" fill="#C16256"/>
<path d="M157.738 37.4576C158.121 37.4199 157.573 36.2865 156.634 36.2404C156.474 36.2319 156.461 36.4818 156.622 36.4876C157.584 36.569 157.51 37.4299 157.738 37.4576Z" fill="#C16256"/>
<path d="M170.419 37.4377C171.247 36.0968 170.216 35.0294 169.185 35.5784C169.036 35.6378 169.132 35.8698 169.279 35.8068C170.155 35.4285 170.741 35.9666 170.298 37.28C170.274 37.3582 170.338 37.4404 170.419 37.4377Z" fill="#C16256"/>
<path d="M169.261 37.2863C169.485 37.2525 169.592 36.3448 170.545 36.2299C170.613 36.2241 170.663 36.1642 170.657 36.0962C170.23 35.5518 168.708 37.223 169.261 37.2863Z" fill="#C16256"/>
<path d="M169.866 38.3924C169.173 35.7407 169.287 35.075 168.577 33.723C168.938 35.2352 169.184 37.3828 169.289 38.5312C169.565 40.0607 168.52 40.3919 167.406 39.9502C165.232 38.9686 162.641 38.4438 160.258 39.7673C156.492 41.7696 158.357 35.7602 158.563 34.1076C158.606 33.8686 158.639 33.6558 158.656 33.4858C158.023 35.2533 157.612 36.8107 157.357 38.7053C156.318 48.3056 172.251 47.5143 169.866 38.3924ZM166.74 43.4659C164.4 44.5105 164.473 41.954 163.718 41.9492C162.778 41.9425 163.011 43.6426 161.766 43.6292C160.168 43.6034 158.822 41.5724 160.552 40.4846C162.395 39.364 165.181 39.5197 166.926 40.7479C167.956 41.4152 167.864 42.975 166.74 43.4659Z" fill="#8C4225"/>
<path d="M164.356 40.9706C164.714 40.9639 164.937 40.9048 164.958 40.8991C165.117 40.8577 165.048 40.609 164.891 40.6549C164.88 40.6578 163.785 40.9437 162.478 40.2412C162.416 40.2081 162.34 40.2312 162.307 40.2928C162.461 40.8626 164.191 40.9836 164.356 40.9706Z" fill="#C16256"/>
<path d="M153.646 50.9432C159.331 55.9001 168.569 55.9049 174.26 50.9419C167.43 51.5701 160.498 51.5459 153.646 50.9432Z" fill="#CE3932"/>
<path d="M160.326 48.2022C160.324 48.2078 160.32 48.2135 160.317 48.2192C163.793 49.0524 167.223 48.0946 167.215 48.0972C167.215 48.0972 167.347 46.8306 165.905 46.1821C165.905 46.1821 163.883 46.7442 161.424 46.2505C161.424 46.2505 160.026 46.8828 160.326 48.2022Z" fill="#CE3932"/>
<path d="M163.637 21.6011C186.175 21.8974 186.753 54.5725 164.267 55.6749C141.763 55.404 141.119 22.7374 163.637 21.6011ZM164.23 53.6986C184.103 52.7243 183.603 23.8458 163.674 23.5775C143.774 24.5743 144.333 53.4606 164.23 53.6986Z" fill="white"/>
<path d="M160.455 35.0617C160.386 35.0488 160.338 34.9841 160.347 34.9132C160.356 34.8395 160.423 34.787 160.497 34.7958C160.509 34.7973 161.727 34.9315 162.53 34.0008C162.579 33.9446 162.664 33.9382 162.72 33.9868C162.776 34.0353 162.783 34.1203 162.734 34.1766C161.835 35.2186 160.519 35.0699 160.464 35.063C160.461 35.0627 160.458 35.0622 160.455 35.0617Z" fill="#C16256"/>
<path d="M166.491 35.2962C166.454 35.2893 166.42 35.2672 166.4 35.2324C165.945 34.4648 164.855 34.3558 164.844 34.3547C164.77 34.3473 164.715 34.2824 164.722 34.2084C164.729 34.1344 164.794 34.0798 164.868 34.0865C164.919 34.0912 166.106 34.2077 166.632 35.0953C166.669 35.1593 166.648 35.2419 166.584 35.2798C166.555 35.2969 166.522 35.302 166.491 35.2962Z" fill="#C16256"/>
<path d="M153.622 102.376C154.026 115.075 139.651 123.282 129.04 116.308L129.04 116.307C128.427 115.924 127.837 115.496 127.283 115.035C127.283 115.035 127.28 115.035 127.281 115.034C105.311 92.6753 149.667 71.4809 153.622 102.376Z" fill="#8A9EDD"/>
<path d="M137.082 118.822C137.082 118.833 137.083 118.843 137.082 118.853C136.933 118.848 136.785 118.84 136.637 118.829C136.098 118.793 135.564 118.727 135.033 118.635C135.022 118.633 135.011 118.631 134.998 118.629C135 118.615 135.003 118.6 135.006 118.586C135.201 117.737 136.337 117.583 136.841 118.164C136.982 118.326 137.074 118.544 137.082 118.822Z" fill="#7640CC"/>
<path d="M149.455 113.561C145.843 117.595 140.098 119.664 134.759 118.585C134.778 118.646 134.798 118.708 134.821 118.769C134.472 118.49 134.033 118.431 133.609 118.32C132.704 115.009 131.947 111.604 131.561 108.175C131.066 103.555 131.136 98.5891 133.382 94.6056C133.392 94.6089 133.61 93.3307 133.814 93.0271C137.08 85.3602 148.223 91.2727 146.721 99.4777C145.342 105.707 148.094 108.487 149.455 113.561Z" fill="#662948"/>
<path d="M147.165 115.649C146.215 116.364 145.18 116.973 144.094 117.463C143.871 116.178 143.653 114.952 143.43 113.718C144.761 114.2 146.019 114.844 147.165 115.649Z" fill="#F4D4BE"/>
<path d="M129.332 114.178C129.281 114.551 129.209 115.077 129.12 115.728C129.095 115.911 129.068 116.104 129.041 116.307C128.932 116.24 128.824 116.17 128.717 116.098C128.623 116.185 128.531 116.272 128.439 116.36C128.481 116.24 128.524 116.12 128.569 116C128.124 115.699 127.694 115.378 127.283 115.035C127.946 114.653 128.629 114.372 129.332 114.178Z" fill="#F4D4BE"/>
<path d="M138.583 108.548L134.344 108.616L134.424 113.621L138.663 113.553L138.583 108.548Z" fill="#F99370"/>
<path d="M138.585 109.255L138.606 110.584C136.098 111.414 134.369 110.787 134.369 110.787L134.335 108.65L138.585 109.255Z" fill="#E57D61"/>
<path d="M141.559 105.626C141.444 107.15 140.62 108.463 139.407 109.313H139.405C136.084 111.879 130.258 109.29 130.502 105.045C130.556 103.15 131.079 102.305 131.561 100.59C131.806 94.1562 140.072 92.702 140.935 99.587C141.04 101.85 141.733 103.573 141.559 105.626Z" fill="#F99370"/>
<path d="M137.163 102.291C136.984 101.953 137.519 101.679 137.689 102.022C137.868 102.36 137.333 102.635 137.163 102.291Z" fill="#C16256"/>
<path d="M133.625 102.31C133.446 101.972 133.981 101.698 134.15 102.041C134.33 102.38 133.795 102.654 133.625 102.31Z" fill="#C16256"/>
<path d="M134.91 105.004C134.367 105.007 133.506 104.643 134.193 104.156C134.901 103.773 135.038 102.573 135.301 102.615C135.536 102.689 134.922 103.968 134.3 104.352C133.864 104.622 134.776 104.878 135.152 104.744C135.211 104.725 135.273 104.757 135.293 104.816C135.327 105.011 135.046 104.988 134.91 105.004Z" fill="#C16256"/>
<path d="M143.43 113.718C141.815 118.624 139.531 119.505 134.76 118.585C134.778 118.646 130.394 118.234 129.332 114.178C130.952 113.301 133.003 112.741 134.351 112.674L134.379 111.374C134.379 111.374 135.647 112.064 138.618 111.307L138.696 112.604C138.596 112.499 141.772 112.851 143.43 113.718Z" fill="#103663"/>
<path d="M141.558 105.626C141.444 107.15 140.619 108.463 139.406 109.314C141.888 106.56 141.03 104.058 140.656 102.105C137.296 99.892 138.008 96.9376 138.008 96.9376C136.552 98.6034 133.125 99.3279 132.004 101.297L131.561 100.59C131.806 94.1543 140.071 92.7036 140.934 99.587C141.039 101.85 141.732 103.573 141.558 105.626Z" fill="#E57D61"/>
<path d="M138.476 95.5567C138.476 95.5567 138.009 100.4 141.151 101.519C141.151 101.519 143.405 94.29 138.476 95.5567Z" fill="#662948"/>
<path d="M138.576 95.4227C137.285 97.5772 130.925 99.7266 131.338 103.943C131.46 106.274 132.938 108.001 132.152 110.102C131.366 112.203 128.839 111.928 128.839 111.928C128.839 111.928 131.271 110.245 129.324 106.81C125.322 100.303 132.632 89.0106 138.576 95.4227Z" fill="#662948"/>
<path d="M133.389 93.7555C133.389 93.7555 138.505 91.6644 142.004 95.6019C142.004 95.6019 140.064 90.9346 133.815 93.0269C133.815 93.0269 132.908 93.3193 133.389 93.7555Z" fill="#CE3932"/>
<path d="M133.899 118.395C133.802 118.371 133.706 118.346 133.61 118.32C133.603 118.318 133.596 118.317 133.589 118.314C133.576 118.312 133.563 118.308 133.549 118.304C132.584 118.035 131.648 117.684 130.753 117.254C130.406 117.088 130.065 116.911 129.732 116.722C129.697 116.702 129.664 116.682 129.629 116.662C129.43 116.547 129.234 116.429 129.041 116.308L129.041 116.306C128.932 116.24 128.824 116.169 128.717 116.098C128.623 116.184 128.531 116.271 128.438 116.36C128.481 116.239 128.524 116.119 128.569 116C128.797 115.376 129.051 114.767 129.332 114.178C129.424 114.324 129.671 114.597 130.024 114.947C130.817 115.73 132.146 116.899 133.47 117.863C133.476 117.868 133.483 117.873 133.49 117.877C133.8 118.103 134.11 118.318 134.411 118.513C134.24 118.478 134.069 118.438 133.899 118.395Z" fill="#F4D4BE"/>
<path d="M145.144 116.944C145.107 116.964 145.071 116.983 145.033 117.003C145.013 117.014 144.992 117.024 144.972 117.035C144.684 117.186 144.391 117.328 144.094 117.462C143.925 117.538 143.752 117.612 143.579 117.683C143.046 117.9 142.498 118.09 141.937 118.249C141.255 118.453 140.561 118.606 139.861 118.707C139.42 118.772 138.977 118.816 138.534 118.84C138.259 118.857 137.983 118.864 137.707 118.864C138.007 118.653 138.351 118.403 138.72 118.125C140.15 117.049 141.943 115.572 142.894 114.463C143.13 114.189 143.315 113.936 143.43 113.718C143.827 114.378 144.23 115.095 144.62 115.863C144.715 116.05 144.809 116.238 144.902 116.431L144.902 116.432C144.908 116.444 144.915 116.457 144.92 116.47C144.995 116.626 145.07 116.784 145.144 116.944Z" fill="#F4D4BE"/>
<path d="M133.898 118.395C132.176 117.961 130.538 117.251 129.04 116.308L129.04 116.307C128.931 116.24 127.694 115.377 127.283 115.035C127.269 115.042 127.257 115.049 127.245 115.056C128.4 114.345 129.37 114.16 129.331 114.178C130.508 115.592 132.555 117.263 134.411 118.513C134.239 118.478 134.069 118.438 133.898 118.395Z" fill="#D1A68F"/>
<path d="M146.148 114.995C144.284 118.139 141.177 118.822 137.707 118.864C139.685 117.391 142.193 115.603 143.43 113.718C143.43 113.718 145.144 114.28 146.148 114.995Z" fill="#D1A68F"/>
<path d="M134.922 106.14C134.703 106.144 134.561 106.117 134.545 106.114C134.403 106.088 134.447 105.864 134.589 105.895C134.602 105.897 135.532 106.066 136.347 105.384C136.394 105.345 136.465 105.351 136.504 105.398C136.442 105.965 135.102 106.152 134.922 106.14Z" fill="#C16256"/>
<path d="M137.407 101.032C136.477 101.052 136.01 101.67 135.996 102.297C135.994 102.371 135.997 102.445 136.01 102.517C136.095 103.098 136.578 103.627 137.449 103.618C138.368 103.598 138.835 102.994 138.86 102.375C138.862 102.314 138.861 102.252 138.855 102.191C138.793 101.588 138.308 101.022 137.407 101.032ZM137.445 103.408C135.807 103.425 135.773 101.277 137.41 101.242C139.047 101.224 139.082 103.373 137.445 103.408Z" fill="#C16256"/>
<path d="M133.207 101.004C131.297 101.044 131.337 103.609 133.249 103.589C134.112 103.57 134.576 103.038 134.65 102.46C134.661 102.381 134.663 102.301 134.659 102.221C134.624 101.596 134.137 100.994 133.207 101.004ZM133.245 103.379C131.608 103.397 131.573 101.248 133.21 101.213C134.848 101.196 134.882 103.344 133.245 103.379Z" fill="#C16256"/>
<path d="M136.075 102.56C135.123 101.924 134.722 102.58 134.51 102.462C134.387 102.272 135.187 101.748 136.131 102.379C136.21 102.431 136.168 102.562 136.075 102.56Z" fill="#C16256"/>
<path d="M138.786 102.402C138.674 102.407 138.647 102.233 138.759 102.207C138.819 102.242 141.366 101.393 141.319 101.629C141.467 101.817 138.841 102.341 138.786 102.402Z" fill="#C16256"/>
<path d="M143.154 103.312C142.509 105.485 139.855 104.712 140.478 102.533C141.122 100.359 143.777 101.133 143.154 103.312Z" fill="#F99370"/>
<path d="M142.569 103.617C142.497 103.619 142.441 103.547 142.462 103.478C142.856 102.32 142.338 101.844 141.567 102.177C141.437 102.232 141.352 102.026 141.484 101.975C142.387 101.589 143.142 102.152 142.672 103.538C142.658 103.585 142.615 103.616 142.569 103.617Z" fill="#C16256"/>
<path d="M141.548 103.481C141.216 103.44 141.827 102.417 142.664 102.335C142.724 102.33 142.776 102.375 142.781 102.435C142.786 102.495 142.742 102.547 142.682 102.552C141.84 102.653 141.747 103.45 141.548 103.481Z" fill="#C16256"/>
<path d="M142.14 104.071C142.152 104.467 141.529 104.477 141.528 104.081C141.516 103.684 142.139 103.674 142.14 104.071Z" fill="#F4D4BE"/>
<path d="M137.146 85.7471C159.686 85.8907 160.484 118.561 138.007 119.816C115.501 119.697 114.637 87.0358 137.146 85.7471ZM137.956 117.84C157.823 116.731 157.127 87.8565 137.196 87.7231C117.304 88.8546 118.058 117.736 137.956 117.84Z" fill="white"/>
<path d="M138.709 100.997C138.668 101.002 138.624 100.988 138.594 100.955C137.791 100.083 136.69 100.181 136.679 100.182C136.605 100.19 136.539 100.136 136.532 100.062C136.525 99.9888 136.577 99.9235 136.649 99.9147C136.65 99.9146 136.651 99.9145 136.652 99.9145C136.702 99.9092 137.895 99.7988 138.792 100.773C138.842 100.827 138.839 100.913 138.784 100.963C138.762 100.983 138.736 100.994 138.709 100.997Z" fill="#C16256"/>
<path d="M132.863 100.651C132.817 100.656 132.769 100.638 132.739 100.598C132.694 100.539 132.706 100.455 132.765 100.41C132.796 100.387 133.523 99.8458 134.439 100.046C134.512 100.062 134.558 100.133 134.542 100.206C134.526 100.279 134.455 100.325 134.382 100.309C133.585 100.135 132.934 100.619 132.928 100.624C132.908 100.639 132.886 100.648 132.863 100.651Z" fill="#C16256"/>
<path d="M134.716 27.002C132.616 29.5784 129.75 31.4962 126.561 32.4612C121.59 34.014 115.943 32.7472 111.972 29.4295C108.419 26.4853 106.198 22.1804 106.112 17.3771C107.534 -11.7915 151.308 3.29185 134.716 27.002Z" fill="#8A9EDD"/>
<path d="M131.501 16.4388C135.955 21.9244 129.352 27.4607 124.813 21.9797C120.36 16.4945 126.963 10.958 131.501 16.4388Z" fill="#662948"/>
<path d="M119.71 32.9328C116.873 32.4705 114.176 31.2575 111.973 29.4294C114.906 26.2932 118.453 26.1284 118.453 26.1284C120.191 27.8767 120.227 30.6083 119.71 32.9328Z" fill="#23659B"/>
<path d="M119.213 23.7062L119.184 25.834C119.833 28.3309 123.063 27.4287 124.472 25.908C124.472 25.908 124.296 24.3211 124.307 23.5864L119.213 23.7062Z" fill="#F99370"/>
<path d="M123.325 6.60358C116.276 3.70662 112.356 13.9379 115.718 19.0003L123.325 6.60358Z" fill="#662948"/>
<path d="M124.713 18.3942C124.702 18.482 124.688 18.5708 124.669 18.6567C124.547 18.5806 124.271 21.759 124.311 24.0626C122.112 25.0754 119.655 24.705 119.201 24.6201C119.29 20.9278 118.486 17.3478 121.174 15.7799C122.863 15.0419 124.979 16.5169 124.713 18.3942Z" fill="#E57D61"/>
<path d="M128.158 16.2281C127.828 18.4979 127.085 21.0513 125.298 22.5556H125.295C120.441 27.0135 110.051 20.3137 115.058 14.7438C115.751 14.0565 116.303 13.1322 116.588 12.2933C119.151 3.51899 129.603 8.40524 128.158 16.2281Z" fill="#F99370"/>
<path d="M117.092 18.9824L120.093 17.4326C120.432 19.2545 118.407 20.3699 117.092 18.9824Z" fill="#F9F8F3"/>
<path d="M119.315 14.9503C119.096 14.5549 119.731 14.2411 119.933 14.6331C120.151 15.0284 119.516 15.3421 119.315 14.9503Z" fill="#C16256"/>
<path d="M116.366 14.5055C116.147 14.11 116.782 13.7963 116.983 14.1882C117.202 14.5837 116.567 14.8974 116.366 14.5055Z" fill="#C16256"/>
<path d="M117.078 19.1124C116.954 19.1043 116.916 18.9207 117.031 18.8662C117.113 18.8963 120.214 17.0513 120.209 17.3725C120.383 17.6008 117.157 19.049 117.078 19.1124Z" fill="#C16256"/>
<path d="M117.326 17.4535C116.736 17.3801 115.955 16.9976 116.69 16.4853C117.526 16.0312 117.657 14.6541 117.975 14.6891C118.318 14.9415 117.297 16.3809 116.668 16.8925C116.754 17.0886 117.402 17.2972 117.836 17.1545C117.905 17.1318 117.979 17.1696 118.001 17.2382C118.014 17.5293 117.541 17.4494 117.326 17.4535Z" fill="#C16256"/>
<path d="M115.231 31.5209C115.149 31.4811 115.067 31.4412 114.986 31.3981C116.161 29.6133 117.329 27.7108 118.452 26.1285L119.183 25.8345C120.454 27.816 122.089 27.6154 124.472 25.9088C127.254 26.3231 129.825 27.8584 131.48 30.0347C126.857 33.4482 120.387 34.1187 115.231 31.5209Z" fill="#F99370"/>
<path d="M128.158 16.2278C127.828 18.4976 127.086 21.051 125.298 22.5554H125.295C126.284 21.3167 126.863 18.5661 126.863 18.5661L126.362 17.3525C118.293 14.928 118.863 8.62981 118.863 8.62981C123.73 5.01246 129.206 10.9994 128.158 16.2278Z" fill="#E57D61"/>
<path d="M119.705 8.05957C119.705 8.05957 119.175 14.2697 126.402 16.7233L129.028 18.2512C133.945 11.0315 126.257 1.62591 119.705 8.05957Z" fill="#662948"/>
<path d="M129.646 17.3487C129.176 19.901 125.871 19.276 126.402 16.7232C126.873 14.1711 130.178 14.7962 129.646 17.3487Z" fill="#F99370"/>
<path d="M128.807 17.8896C128.727 17.8822 128.671 17.8 128.695 17.7231C128.916 16.9674 128.901 16.4471 128.649 16.2183C128.268 15.8334 127.672 16.3273 127.432 16.1079C128.177 15.1011 129.888 16.4725 128.807 17.8896Z" fill="#C16256"/>
<path d="M127.568 17.7251C127.101 17.7549 128.29 15.9899 129.077 16.4888C129.083 16.5612 129.029 16.624 128.957 16.6294C127.918 16.7472 127.837 17.7038 127.568 17.7251Z" fill="#C16256"/>
<path d="M128.222 18.5494C128.234 18.9267 127.629 18.9321 127.628 18.5569C127.616 18.1797 128.222 18.1743 128.222 18.5494Z" fill="#F4D4BE"/>
<path d="M131.542 29.9905C126.787 33.5417 120.059 34.1499 114.816 31.3119C114.816 31.3119 117.088 26.374 118.452 26.1284C118.164 29.4124 119.141 31.7807 122.285 28.9426C123.379 27.9076 124.449 26.5431 125.906 26.2318C128.225 26.7383 130.192 28.1555 131.542 29.9905Z" fill="#3A72AA"/>
<path d="M132.44 29.297C129.754 31.5224 126.346 32.9406 122.842 33.1041C122.473 31.8968 122.605 30.6357 123.488 29.0073C125.633 25.0247 130.268 26.3965 132.44 29.297Z" fill="#23659B"/>
<path d="M120.538 14.2758C120.502 14.2721 120.468 14.2528 120.447 14.2203C120.441 14.212 119.878 13.3735 118.991 13.4197C118.922 13.4222 118.863 13.3713 118.86 13.3023C118.856 13.2337 118.908 13.175 118.977 13.1712C120.009 13.1111 120.629 14.0443 120.655 14.084C120.693 14.1414 120.677 14.2185 120.619 14.256C120.594 14.2722 120.566 14.2786 120.538 14.2758Z" fill="#C16256"/>
<path d="M116.214 13.7013C116.196 13.6995 116.179 13.6939 116.162 13.684C116.103 13.6481 116.085 13.5714 116.121 13.5125C116.698 12.5674 117.648 12.9044 117.658 12.9078C117.722 12.9315 117.755 13.0028 117.732 13.0675C117.708 13.1319 117.635 13.1656 117.572 13.1418C117.541 13.1308 116.802 12.8748 116.334 13.6427C116.308 13.6848 116.26 13.706 116.214 13.7013Z" fill="#C16256"/>
<path d="M122.522 34.0719C100.011 33.8637 99.2896 1.19125 121.799 0C144.343 0.24092 144.998 32.9073 122.522 34.0719ZM121.841 1.97625C101.937 3.036 102.585 31.9116 122.481 32.0956C142.353 31.0675 141.764 2.18185 121.841 1.97625Z" fill="white"/>
<path d="M197.668 90.4926C195.061 93.6925 191.235 95.9053 187.132 96.4709C182.059 97.1979 176.728 95.1501 173.297 91.3768C170.696 88.5403 169.136 84.8853 169.065 80.8677C170.486 51.6989 214.262 66.7832 197.668 90.4926Z" fill="#8A9EDD"/>
<path d="M182.532 71.6603C182.532 71.6603 181.273 70.9636 180.518 72.0816C179.762 73.1996 180.613 73.9599 179.673 74.9438C178.733 75.9276 178.151 76.1066 178.419 77.0457C178.688 77.9848 179.409 78.0886 179.093 79.2665C179.093 79.2665 182.629 75.8829 183.098 73.7809C183.568 71.6791 182.532 71.6603 182.532 71.6603Z" fill="#8C4225"/>
<path d="M182.769 89.0991C182.726 88.7769 182.7 88.428 182.686 88.0641C182.602 85.96 182.93 83.3516 183.101 82.3761C183.148 82.112 183.182 81.9679 183.194 81.9856C183.21 81.9236 183.227 81.863 183.248 81.8035C183.474 81.0959 183.953 80.6674 184.509 80.4766C184.51 80.4766 184.51 80.4766 184.51 80.4766C185.332 80.1961 186.322 80.4336 186.926 81.0554C186.939 81.068 186.95 81.0819 186.962 81.0946C187.344 81.5066 187.559 82.0777 187.456 82.7741C187.451 82.8057 187.447 82.8385 187.441 82.8702C187.433 82.9144 187.425 82.9574 187.414 83.0003C187.313 82.9333 187.03 85.6756 187.027 87.6661C187.027 88.322 187.058 88.897 187.135 89.2622C191.221 90.4868 178.932 94.5134 182.769 89.0991Z" fill="#F99370"/>
<path d="M187.457 82.7741C187.452 82.8057 187.448 82.8385 187.441 82.8702C187.434 82.9144 187.425 82.9574 187.415 83.0003C187.314 82.9333 187.03 85.6756 187.028 87.6661C185.156 88.5165 183.068 88.1425 182.686 88.0641C182.603 85.96 182.93 83.3516 183.101 82.376C183.152 82.1473 183.188 82.0133 183.195 81.9855C183.21 81.9236 183.228 81.863 183.248 81.8035C183.457 81.1792 183.93 80.7053 184.509 80.4766C184.51 80.4766 184.51 80.4766 184.51 80.4766C184.913 80.3186 185.364 80.2794 185.816 80.3882C186.262 80.4968 186.643 80.7357 186.926 81.0555C186.939 81.0681 186.951 81.082 186.962 81.0947C187.344 81.5483 187.539 82.1537 187.457 82.7741Z" fill="#E57D61"/>
<path d="M182.769 89.1001C181.311 91.073 179.939 92.9322 178.345 95.0881C176.012 93.995 173.962 92.335 172.392 90.3042C177.211 89.2249 179.596 89.1058 182.769 89.1001Z" fill="#FCB4B4"/>
<path d="M178.184 95.0116C177.847 94.849 177.516 94.6745 177.193 94.4882C178.547 92.862 180.022 91.4005 181.54 90.1071V90.106C181.948 89.7585 182.356 89.4269 182.769 89.1001C182.77 89.1001 182.77 89.1001 182.77 89.1001C182.497 91.0894 183.606 91.446 187.136 89.2616L187.137 89.2627C187.136 89.2627 187.137 89.2627 187.137 89.2638C187.137 89.2638 187.139 89.2638 187.139 89.2638C187.827 89.745 188.966 90.9913 188.945 91.8432C188.918 92.597 189.331 94.0003 189.974 95.8064C186.139 97.1218 181.82 96.792 178.184 95.0116Z" fill="#FCB4B4"/>
<path d="M179.522 85.7453C181.15 87.4018 183.665 87.8747 185.676 87.4413C186.514 87.2758 187.296 86.9379 187.948 86.3982H187.95C195.575 78.8196 185.306 66.0216 180.475 77.0826C178.87 80.0953 176.102 81.9867 179.522 85.7453Z" fill="#F99370"/>
<path d="M180.808 83.0953L183.467 81.7383C183.467 81.7383 183.625 83.187 182.573 83.5801C181.567 83.9558 180.808 83.0953 180.808 83.0953Z" fill="#F9F8F3"/>
<path d="M193.597 94.0875C192.47 94.7972 191.253 95.3766 189.973 95.8063C189.936 95.8192 189.897 95.8322 189.858 95.8451C189.743 95.8828 189.629 95.9183 189.514 95.9517C188.734 96.1865 187.938 96.361 187.132 96.4708C186.765 94.8672 186.629 93.0837 186.862 91.0224C186.874 90.9104 186.887 90.7984 186.902 90.6842C186.961 90.2254 187.04 89.7515 187.137 89.2637C187.137 89.2637 187.137 89.2637 187.138 89.2637H187.139C187.14 89.2637 187.14 89.2637 187.141 89.2637C187.618 89.3208 188.102 89.408 188.588 89.5265C190.829 90.0671 193.144 91.2421 195.219 92.9286C194.734 93.3207 194.225 93.6868 193.698 94.0228C193.663 94.0455 193.631 94.0671 193.597 94.0875Z" fill="#F99370"/>
<path d="M182.824 79.5003C182.748 79.3493 182.808 79.1647 182.959 79.088C183.11 79.0113 183.295 79.0715 183.372 79.2225C183.448 79.3735 183.388 79.5581 183.237 79.6348C183.086 79.7115 182.901 79.6513 182.824 79.5003Z" fill="#C16256"/>
<path d="M193.598 94.0875C191.429 95.4531 188.909 96.348 186.341 96.558C186.05 94.0247 186.213 91.5559 187.137 89.2637C190.28 89.4852 193.369 90.6923 195.701 92.5248C195.043 93.0999 194.337 93.6201 193.598 94.0875Z" fill="#FCB4B4"/>
<path d="M180.244 79.0667C180.168 78.9157 180.228 78.7311 180.379 78.6544C180.53 78.5777 180.715 78.6379 180.792 78.7889C180.868 78.9399 180.808 79.1245 180.657 79.2012C180.506 79.2779 180.321 79.2177 180.244 79.0667Z" fill="#C16256"/>
<path d="M180.808 83.2113C180.766 83.2113 180.726 83.1884 180.705 83.148C180.676 83.0911 180.699 83.0209 180.756 82.9919L183.415 81.6348C183.471 81.6059 183.541 81.6276 183.571 81.6856C183.6 81.7424 183.577 81.8126 183.52 81.8416L180.861 83.1986C180.844 83.2074 180.826 83.2113 180.808 83.2113Z" fill="#C16256"/>
<path d="M181.39 75.3561C181.39 75.3561 182.505 76.096 183.679 75.7268C184.855 75.3576 185.324 75.7268 185.291 76.6662C185.257 77.6041 186.969 77.3282 187.172 77.7683C187.373 78.2084 187.139 79.0466 187.524 79.6168C187.909 80.1869 189.84 80.8885 189.84 80.8885L189.491 82.9391C189.491 82.9391 188.83 85.7755 187.531 86.7042C187.675 86.611 187.815 86.5084 187.947 86.3982H187.95C188.506 85.941 188.964 85.3551 189.345 84.6483C189.457 84.4381 189.564 84.2161 189.664 83.9849C189.812 83.6394 189.946 83.2715 190.069 82.88C190.104 82.7709 190.229 82.344 190.258 82.2416C190.296 82.0879 189.143 74.8191 188.689 74.3672C188.663 74.3435 182.024 74.2976 181.793 74.5945C181.698 74.7165 181.438 75.2786 181.39 75.3561Z" fill="#E57D61"/>
<path d="M181.22 81.7338C180.811 81.7338 180.365 81.5556 180.26 81.3084C180.225 81.2275 180.179 81.0204 180.495 80.8495C181.075 80.5362 181.501 79.3352 181.505 79.323C181.527 79.2631 181.591 79.2299 181.653 79.252C181.714 79.273 181.746 79.3393 181.724 79.4001C181.706 79.4527 181.264 80.6976 180.606 81.054C180.531 81.0945 180.447 81.1554 180.474 81.2177C180.548 81.3932 181.1 81.5882 181.49 81.4642C181.552 81.4451 181.617 81.4783 181.636 81.5394C181.656 81.6004 181.622 81.666 181.561 81.6855C181.457 81.7185 181.34 81.7338 181.22 81.7338Z" fill="#C16256"/>
<path d="M181.629 74.5686C181.629 74.5686 180.805 73.3782 181.85 72.4838C182.896 71.5894 182.831 70.2477 184.274 70.4714C185.716 70.6949 186.254 70.8691 187.82 70.4466C189.387 70.0241 190.716 71.529 190.656 72.5207C190.596 73.5124 192.7 73.5124 193.014 74.8541C193.327 76.1958 193.014 76.5983 193.014 77.1797C193.014 77.761 194.849 78.5213 194.491 79.9076C194.133 81.294 192.969 81.0814 192.745 81.9704C192.521 82.8593 193.206 84.3839 192.179 84.8846C190.656 85.6269 189.345 84.6486 189.345 84.6486C189.345 84.6486 191.251 81.0021 189.466 80.2406C188.597 79.8702 187.742 79.371 188.05 78.0741C188.358 76.7771 186.439 77.1797 185.988 76.5088C185.537 75.838 185.863 75.033 185.029 74.8541C184.194 74.6751 183.48 75.651 181.629 74.5686Z" fill="#8C4225"/>
<path d="M191.852 81.7729C191.646 82.7453 190.844 83.3995 190.061 83.2342C189.278 83.0689 188.809 82.1465 189.015 81.1739C189.221 80.2014 190.023 79.5472 190.806 79.7126C191.589 79.8779 192.057 80.8003 191.852 81.7729Z" fill="#F99370"/>
<path d="M191.12 82.2486C191.109 82.2486 191.098 82.2471 191.086 82.2437C191.025 82.2251 190.991 82.1601 191.009 82.0987C191.218 81.4158 191.211 80.9461 190.989 80.7398C190.693 80.4651 190.084 80.697 190.078 80.6997C190.018 80.7226 189.951 80.6936 189.928 80.6337C189.905 80.5738 189.934 80.5066 189.993 80.4834C190.024 80.4716 190.743 80.1965 191.146 80.5689C191.442 80.8439 191.471 81.3811 191.231 82.1667C191.216 82.2167 191.17 82.2486 191.12 82.2486Z" fill="#C16256"/>
<path d="M190.036 82.0868C190.021 82.0868 190.005 82.0837 189.991 82.0777C189.932 82.0525 189.904 81.9842 189.929 81.9255C189.946 81.8855 190.356 80.9454 191.244 80.8862C191.316 80.8908 191.363 80.9309 191.368 80.9946C191.372 81.0587 191.323 81.1136 191.259 81.1182C190.515 81.1674 190.146 82.0079 190.143 82.0166C190.124 82.0605 190.081 82.0868 190.036 82.0868Z" fill="#C16256"/>
<path d="M190.999 81.584C190.926 81.8678 190.636 82.0388 190.352 81.966C190.068 81.8931 189.897 81.6039 189.97 81.3202C190.043 81.0364 190.332 80.8654 190.617 80.9382C190.9 81.011 191.072 81.3001 190.999 81.584Z" fill="#FDFFDE"/>
<path d="M189.197 82.8503C189.102 82.8503 189.009 82.8098 188.944 82.7316C188.828 82.5919 188.847 82.3848 188.987 82.2688L190.275 81.1991C190.414 81.0835 190.621 81.1026 190.738 81.2422C190.853 81.3817 190.834 81.589 190.694 81.7049L189.406 82.7747C189.345 82.8256 189.271 82.8503 189.197 82.8503Z" fill="#FDFFDE"/>
<path d="M184.564 78.7339C184.554 78.7339 184.544 78.7325 184.533 78.7295C183.301 78.3768 182.929 77.5118 182.914 77.475C182.89 77.4177 182.917 77.3519 182.975 77.328C183.032 77.3041 183.098 77.3313 183.122 77.3884C183.125 77.3964 183.472 78.1918 184.595 78.5132C184.655 78.5304 184.69 78.5926 184.673 78.6523C184.658 78.7017 184.613 78.7339 184.564 78.7339Z" fill="#C16256"/>
<path d="M180.399 77.8805C180.37 77.8805 180.342 77.8697 180.32 77.8482C180.276 77.8047 180.275 77.7339 180.318 77.6897C180.343 77.6636 180.955 77.0539 182.154 77.2287C182.215 77.2377 182.258 77.2947 182.249 77.3562C182.24 77.4177 182.183 77.4603 182.121 77.4513C181.042 77.2939 180.501 77.8247 180.479 77.8473C180.457 77.8693 180.428 77.8805 180.399 77.8805Z" fill="#C16256"/>
<path d="M188.688 89.4305C188.545 89.5762 188.294 89.7787 187.971 90.0062C187.595 90.2716 187.12 90.5712 186.6 90.8537C185.289 91.5671 183.691 92.1726 182.672 91.8533C181.99 91.64 181.694 91.1821 181.588 90.6991C181.544 90.5011 181.532 90.2978 181.539 90.1062C181.559 89.5565 181.731 89.0994 181.731 89.0994L181.729 89.094C182.398 89.0833 182.769 89.0994 182.769 89.0994C182.738 89.2253 182.351 92.364 187.135 89.2614C187.135 89.2614 187.135 89.2614 187.136 89.2632C187.136 89.2632 187.136 89.2632 187.137 89.2632C187.163 89.2623 187.726 89.247 188.688 89.4305Z" fill="#F49F9F"/>
<path d="M185.475 97.5627C162.964 97.3546 162.243 64.6821 184.752 63.4907C207.296 63.7318 207.951 96.3981 185.475 97.5627ZM184.794 65.4671C164.89 66.5268 165.538 95.4024 185.434 95.5864C205.306 94.5583 204.717 65.6727 184.794 65.4671Z" fill="white"/>
</svg>
