<?xml version="1.0" standalone="no"?>
<!DOCTYPE svg PUBLIC "-//W3C//DTD SVG 20010904//EN"
 "http://www.w3.org/TR/2001/REC-SVG-20010904/DTD/svg10.dtd">
<svg version="1.0" xmlns="http://www.w3.org/2000/svg"
 width="512.000000pt" height="512.000000pt" viewBox="0 0 512.000000 512.000000"
 preserveAspectRatio="xMidYMid meet">
<metadata>
Created by potrace 1.16, written by Peter Selinger 2001-2019
</metadata>
<g transform="translate(0.000000,512.000000) scale(0.100000,-0.100000)"
fill="#000000" stroke="none">
<path d="M2406 5105 c-155 -43 -298 -159 -369 -300 -69 -138 -81 -307 -33
-450 32 -96 100 -199 170 -260 97 -86 255 -145 386 -145 131 0 284 57 383 142
200 170 260 474 140 713 -71 141 -220 262 -369 299 -77 19 -239 20 -308 1z"/>
<path d="M2385 3834 c-11 -3 -54 -11 -95 -19 -121 -23 -254 -71 -409 -148
-179 -87 -256 -156 -314 -277 -45 -96 -57 -156 -57 -289 0 -100 2 -112 31
-170 17 -33 45 -72 63 -86 76 -58 31 -55 960 -55 l854 0 53 28 c59 30 111 95
129 160 13 49 13 217 -1 284 -20 96 -75 197 -148 268 -56 56 -90 77 -211 137
-145 72 -273 119 -405 149 -68 16 -404 29 -450 18z"/>
<path d="M2478 2531 l-33 -29 -5 -350 -5 -350 -281 -225 c-155 -124 -284 -232
-288 -242 -11 -31 -6 -100 10 -123 32 -46 109 -66 157 -41 12 7 133 101 269
210 136 110 252 199 258 199 6 0 122 -89 258 -199 136 -109 257 -203 269 -210
48 -25 125 -5 157 41 23 32 21 109 -3 139 -10 13 -141 121 -289 239 l-271 215
-3 348 -3 349 -33 29 c-26 24 -41 29 -82 29 -41 0 -56 -5 -82 -29z"/>
<path d="M892 2310 c-106 -28 -167 -64 -257 -155 -117 -116 -174 -250 -175
-406 -1 -269 191 -512 453 -574 307 -73 623 117 701 421 20 79 20 219 0 298
-42 161 -158 304 -305 374 -46 22 -108 45 -137 51 -79 16 -198 12 -280 -9z"/>
<path d="M3932 2316 c-201 -49 -374 -220 -426 -422 -20 -79 -20 -219 0 -298
24 -92 81 -193 149 -262 106 -107 230 -162 385 -171 178 -10 314 42 441 167
111 109 166 228 176 380 14 229 -100 436 -305 552 -106 61 -293 84 -420 54z"/>
<path d="M835 1034 c-267 -47 -584 -190 -697 -313 -100 -110 -138 -219 -138
-400 0 -111 3 -132 24 -176 25 -55 81 -110 132 -131 28 -12 186 -14 892 -14
l858 0 53 26 c106 53 147 150 138 329 -9 206 -89 352 -245 452 -81 52 -261
136 -372 172 -199 66 -457 88 -645 55z"/>
<path d="M3845 1030 c-249 -44 -562 -184 -675 -302 -91 -93 -140 -215 -147
-369 -9 -176 28 -271 129 -328 l53 -31 863 0 c709 0 868 2 896 14 51 21 107
76 132 131 21 44 24 65 24 170 0 307 -112 454 -464 606 -276 119 -550 156
-811 109z"/>
</g>
</svg>
