<svg width="100" height="100" viewBox="0 0 100 100" fill="none" xmlns="http://www.w3.org/2000/svg">
<path d="M96.4812 49.998C98.0256 48.1996 99.1078 46.0515 99.6341 43.7401C100.16 41.4287 100.115 39.0239 99.5011 36.7341C98.8875 34.4444 97.7245 32.3389 96.113 30.6004C94.5015 28.8619 92.4902 27.5428 90.2534 26.7576C90.6917 24.4278 90.5549 22.0263 89.8548 19.7614C89.1548 17.4965 87.9127 15.4365 86.2363 13.7604C84.5599 12.0842 82.4999 10.8424 80.2349 10.1426C77.9699 9.44287 75.5683 9.30636 73.2386 9.74491C72.454 7.50768 71.1352 5.49578 69.3966 3.88388C67.6581 2.27199 65.5524 1.10881 63.2623 0.495351C60.9722 -0.118112 58.567 -0.163318 56.2555 0.363656C53.944 0.89063 51.7961 1.97386 49.9982 3.51929C48.1997 1.97492 46.0517 0.89267 43.7403 0.366424C41.4289 -0.159822 39.024 -0.11417 36.7342 0.499417C34.4445 1.11301 32.339 2.276 30.6005 3.8875C28.862 5.49901 27.5429 7.51036 26.7577 9.74707C24.4281 9.30923 22.0268 9.44636 19.7622 10.1466C17.4976 10.8468 15.438 12.0889 13.7621 13.7653C12.0862 15.4416 10.8446 17.5015 10.1449 19.7663C9.44529 22.0311 9.30878 24.4324 9.74722 26.7619C7.51051 27.5471 5.49915 28.8662 3.88765 30.6047C2.27614 32.3432 1.11314 34.4487 0.499551 36.7384C-0.114037 39.0282 -0.159696 41.4331 0.36655 43.7444C0.892796 46.0558 1.97507 48.2039 3.51943 50.0023C1.9746 51.8007 0.891994 53.949 0.365598 56.2606C-0.160798 58.5722 -0.115099 60.9774 0.498757 63.2673C1.11261 65.5573 2.27606 67.6628 3.88812 69.4012C5.50018 71.1396 7.51216 72.4582 9.74939 73.2428C9.31057 75.5723 9.44693 77.9738 10.1466 80.2387C10.8464 82.5036 12.0883 84.5636 13.7646 86.2397C15.441 87.9158 17.501 89.1575 19.766 89.8569C22.0311 90.5563 24.4325 90.6924 26.7621 90.2533C27.5473 92.49 28.8663 94.5013 30.6049 96.1128C32.3434 97.7244 34.4488 98.8873 36.7386 99.5009C39.0283 100.115 41.4332 100.16 43.7446 99.6339C46.056 99.1077 48.2041 98.0254 50.0025 96.4811C51.8009 98.0259 53.9491 99.1085 56.2607 99.6349C58.5724 100.161 60.9775 100.116 63.2675 99.5017C65.5574 98.8879 67.663 97.7244 69.4013 96.1124C71.1397 94.5003 72.4584 92.4883 73.243 90.2511C75.5726 90.6898 77.9741 90.5534 80.239 89.8536C82.504 89.1539 84.564 87.912 86.2402 86.2358C87.9165 84.5595 89.1584 82.4995 89.8581 80.2346C90.5579 77.9696 90.6943 75.5681 90.2556 73.2385C92.4925 72.4534 94.504 71.1344 96.1156 69.3958C97.7272 67.6572 98.8901 65.5516 99.5035 63.2617C100.117 60.9718 100.162 58.5668 99.6356 56.2554C99.1089 53.944 98.0262 51.7961 96.4812 49.998Z" fill="#18C07A"/>
<path d="M41.0246 69.0843L27.1301 55.1986C26.6028 54.6704 26.3066 53.9546 26.3066 53.2082C26.3066 52.4619 26.6028 51.746 27.1301 51.2179L28.8182 49.5277C29.3464 49.0004 30.0622 48.7042 30.8085 48.7042C31.5549 48.7042 32.2707 49.0004 32.7989 49.5277L42.899 59.6213L66.6855 34.3439C67.1973 33.8008 67.9037 33.483 68.6496 33.4603C69.3956 33.4375 70.12 33.7117 70.664 34.2226L72.3976 35.8586C72.9413 36.3705 73.2595 37.0774 73.2822 37.8238C73.305 38.5703 73.0304 39.2952 72.5189 39.8393L45.0724 69.0215C44.814 69.2969 44.5028 69.5175 44.1574 69.6703C43.812 69.823 43.4394 69.9048 43.0618 69.9106C42.6842 69.9165 42.3092 69.8464 41.9593 69.7044C41.6093 69.5625 41.2914 69.3516 41.0246 69.0843Z" fill="white"/>
</svg>
