<svg width="16" height="16" viewBox="0 0 16 16" fill="none" xmlns="http://www.w3.org/2000/svg">
<path d="M11.8981 9.27768C12.3278 9.27768 12.6761 8.92936 12.6761 8.49968C12.6761 8.07 12.3278 7.72168 11.8981 7.72168C11.4684 7.72168 11.1201 8.07 11.1201 8.49968C11.1201 8.92936 11.4684 9.27768 11.8981 9.27768Z" fill="#00A6F7"/>
<path fill-rule="evenodd" clip-rule="evenodd" d="M14.7501 4.111H3.34261C3.06267 4.111 2.7942 3.9998 2.59626 3.80185C2.39831 3.60391 2.28711 3.33544 2.28711 3.0555C2.28711 2.77556 2.39831 2.50709 2.59626 2.30915C2.7942 2.1112 3.06267 2 3.34261 2H13.1926C13.3252 2 13.4524 1.94732 13.5462 1.85355C13.6399 1.75979 13.6926 1.63261 13.6926 1.5C13.6926 1.36739 13.6399 1.24021 13.5462 1.14645C13.4524 1.05268 13.3252 1 13.1926 1H3.34261C2.79754 1.00026 2.27487 1.21691 1.88944 1.60233C1.50402 1.98776 1.28737 2.51043 1.28711 3.0555V7.9265C1.28711 8.05911 1.33979 8.18629 1.43356 8.28005C1.52732 8.37382 1.6545 8.4265 1.78711 8.4265C1.91972 8.4265 2.04689 8.37382 2.14066 8.28005C2.23443 8.18629 2.28711 8.05911 2.28711 7.9265V4.8195C2.60594 5.01071 2.97083 5.11149 3.34261 5.111H14.2501V11.35C14.2501 11.6299 14.1389 11.8984 13.941 12.0964C13.743 12.2943 13.4745 12.4055 13.1946 12.4055H7.99061C7.858 12.4055 7.73082 12.4582 7.63705 12.5519C7.54329 12.6457 7.49061 12.7729 7.49061 12.9055C7.49061 13.0381 7.54329 13.1653 7.63705 13.2591C7.73082 13.3528 7.858 13.4055 7.99061 13.4055H13.1946C13.7397 13.4054 14.2625 13.1888 14.6479 12.8033C15.0334 12.4179 15.25 11.8951 15.2501 11.35V4.611C15.2501 4.47839 15.1974 4.35121 15.1037 4.25745C15.0099 4.16368 14.8827 4.111 14.7501 4.111Z" fill="#00A6F7"/>
<path fill-rule="evenodd" clip-rule="evenodd" d="M13.1947 2.55566H6.97217C6.83956 2.55566 6.71238 2.60834 6.61861 2.70211C6.52485 2.79588 6.47217 2.92306 6.47217 3.05566C6.47217 3.18827 6.52485 3.31545 6.61861 3.40922C6.71238 3.50299 6.83956 3.55566 6.97217 3.55566H13.1947C13.3273 3.55566 13.4545 3.50299 13.5482 3.40922C13.642 3.31545 13.6947 3.18827 13.6947 3.05566C13.6947 2.92306 13.642 2.79588 13.5482 2.70211C13.4545 2.60834 13.3273 2.55566 13.1947 2.55566Z" fill="#00A6F7"/>
<path fill-rule="evenodd" clip-rule="evenodd" d="M3.86084 2.55566C3.72823 2.55566 3.60105 2.60834 3.50729 2.70211C3.41352 2.79588 3.36084 2.92306 3.36084 3.05566C3.36084 3.18827 3.41352 3.31545 3.50729 3.40922C3.60105 3.50299 3.72823 3.55566 3.86084 3.55566H4.89984C5.03245 3.55566 5.15962 3.50299 5.25339 3.40922C5.34716 3.31545 5.39984 3.18827 5.39984 3.05566C5.39984 2.92306 5.34716 2.79588 5.25339 2.70211C5.15962 2.60834 5.03245 2.55566 4.89984 2.55566H3.86084Z" fill="#00A6F7"/>
<path fill-rule="evenodd" clip-rule="evenodd" d="M3.99499 8.57881C3.01319 8.52994 2.04239 8.80389 1.23099 9.35881C1.08209 9.46631 0.960843 9.60763 0.877223 9.77113C0.793603 9.93464 0.75 10.1157 0.75 10.2993C0.75 10.483 0.793603 10.664 0.877223 10.8275C0.960843 10.991 1.08209 11.1323 1.23099 11.2398C2.04239 11.7947 3.01319 12.0687 3.99499 12.0198C4.97678 12.0687 5.94758 11.7947 6.75899 11.2398C6.90807 11.1324 7.0295 10.9912 7.11325 10.8276C7.19701 10.6641 7.24068 10.483 7.24068 10.2993C7.24068 10.1156 7.19701 9.93449 7.11325 9.77097C7.0295 9.60745 6.90807 9.46618 6.75899 9.35881C5.94758 8.80389 4.97678 8.52994 3.99499 8.57881ZM6.17099 10.4203C6.1062 10.4879 6.03212 10.546 5.95099 10.5928C5.34616 10.8999 4.67275 11.0469 3.99499 11.0198C3.31722 11.0468 2.64384 10.8998 2.03899 10.5928C1.95803 10.5458 1.88399 10.4877 1.81899 10.4203C1.78233 10.3897 1.75786 10.3469 1.74999 10.2998C1.75751 10.2526 1.78205 10.2097 1.81899 10.1793C1.88385 10.1118 1.95792 10.0537 2.03899 10.0068C2.6437 9.69939 3.31716 9.5522 3.99499 9.57931C4.67282 9.55213 5.34629 9.69933 5.95099 10.0068C6.03223 10.0534 6.10633 10.1115 6.17099 10.1793C6.20822 10.2095 6.23297 10.2524 6.24049 10.2998C6.23274 10.3471 6.20804 10.3899 6.17099 10.4203Z" fill="#00A6F7"/>
<path fill-rule="evenodd" clip-rule="evenodd" d="M6.16654 11.9587C6.02278 12.1112 5.84392 12.2262 5.64554 12.2937C5.11811 12.4905 4.55836 12.5861 3.99554 12.5757C3.43271 12.5862 2.87296 12.4905 2.34554 12.2937C2.14707 12.2261 1.96807 12.1111 1.82404 11.9587C1.78398 11.9051 1.73355 11.86 1.67573 11.8262C1.61792 11.7924 1.55391 11.7705 1.48749 11.7619C1.42107 11.7534 1.3536 11.7582 1.28909 11.7762C1.22458 11.7942 1.16434 11.8249 1.11194 11.8666C1.05954 11.9083 1.01606 11.9601 0.984068 12.019C0.952078 12.0778 0.932235 12.1425 0.925715 12.2091C0.919195 12.2758 0.926132 12.3431 0.946114 12.407C0.966096 12.4709 0.998716 12.5302 1.04204 12.5812C1.47504 13.1257 2.62404 13.5757 3.99554 13.5757C5.36704 13.5757 6.51654 13.1257 6.94954 12.5812C6.99148 12.53 7.02282 12.4709 7.04173 12.4074C7.06065 12.3439 7.06676 12.2773 7.05971 12.2115C7.05267 12.1456 7.03261 12.0818 7.0007 12.0238C6.96879 11.9657 6.92566 11.9146 6.87383 11.8733C6.82199 11.8321 6.76248 11.8016 6.69875 11.7835C6.63502 11.7655 6.56833 11.7603 6.50258 11.7682C6.43682 11.7762 6.37329 11.7971 6.31569 11.8298C6.25809 11.8625 6.20756 11.9063 6.16704 11.9587H6.16654Z" fill="#00A6F7"/>
<path fill-rule="evenodd" clip-rule="evenodd" d="M6.16656 13.3833C6.02281 13.5358 5.84395 13.6508 5.64556 13.7183C5.11798 13.9151 4.55805 14.0108 3.99506 14.0003C3.43223 14.0107 2.87247 13.9151 2.34506 13.7183C2.14659 13.6506 1.9676 13.5357 1.82356 13.3833C1.78313 13.3306 1.7326 13.2864 1.67492 13.2534C1.61724 13.2205 1.55356 13.1993 1.48761 13.1912C1.42166 13.1831 1.35476 13.1883 1.29081 13.2063C1.22687 13.2244 1.16717 13.255 1.1152 13.2964C1.06323 13.3378 1.02004 13.3892 0.988142 13.4475C0.956244 13.5058 0.936283 13.5698 0.929427 13.6359C0.922571 13.702 0.928956 13.7688 0.948209 13.8324C0.967463 13.896 0.999198 13.9551 1.04156 14.0063C1.47456 14.5503 2.62356 15.0003 3.99506 15.0003C5.36656 15.0003 6.51606 14.5503 6.94906 14.0063C6.98997 13.9549 7.02035 13.896 7.03848 13.8328C7.05661 13.7697 7.06214 13.7036 7.05473 13.6384C7.04732 13.5731 7.02714 13.51 6.99532 13.4525C6.96351 13.3951 6.92069 13.3444 6.86931 13.3035C6.81793 13.2626 6.759 13.2322 6.69587 13.2141C6.63275 13.196 6.56667 13.1905 6.50142 13.1979C6.43616 13.2053 6.373 13.2255 6.31555 13.2573C6.25809 13.2891 6.20747 13.3319 6.16656 13.3833Z" fill="#00A6F7"/>
</svg>
