<svg width="37" height="37" viewBox="0 0 37 37" fill="none" xmlns="http://www.w3.org/2000/svg">
<circle cx="18.5" cy="18.5" r="18.5" fill="#0651BF"/>
<path d="M15.464 22.5361L25 13.0001M25 13.0001L25 17.0001M25 13.0001L21 13.0001M15.414 22.5862C15.2295 22.3951 15.0089 22.2428 14.7648 22.138C14.5208 22.0331 14.2584 21.978 13.9928 21.9757C13.7273 21.9734 13.4639 22.024 13.2181 22.1245C12.9723 22.2251 12.749 22.3736 12.5613 22.5614C12.3735 22.7492 12.225 22.9725 12.1244 23.2183C12.0238 23.464 11.9732 23.7274 11.9755 23.993C11.9778 24.2585 12.033 24.521 12.1378 24.765C12.2427 25.009 12.395 25.2297 12.586 25.4142C12.9632 25.7785 13.4684 25.9801 13.9928 25.9755C14.5172 25.971 15.0189 25.7606 15.3897 25.3898C15.7605 25.019 15.9708 24.5174 15.9754 23.993C15.9799 23.4686 15.7784 22.9634 15.414 22.5862Z" stroke="white" stroke-width="2" stroke-linecap="round" stroke-linejoin="round"/>
</svg>
