<svg height="512pt" viewBox="0 0 512 512" width="512pt" xmlns="http://www.w3.org/2000/svg"><path d="m321.332031 239.933594c0 36.082031-29.25 65.332031-65.332031 65.332031s-65.332031-29.25-65.332031-65.332031c0-36.082032 29.25-65.332032 65.332031-65.332032s65.332031 29.25 65.332031 65.332032zm0 0"/><path d="m493.488281 18.503906c-11.941406-11.933594-27.8125-18.503906-44.6875-18.503906h-385.601562c-16.875 0-32.746094 6.570312-44.695313 18.511719-11.933594 11.945312-18.503906 27.8125-18.503906 44.6875v64.269531c0 16.875 6.570312 32.742188 18.511719 44.695312 11.945312 11.933594 27.8125 18.5 44.6875 18.5h3.203125v-110.332031c0-8.28125 6.714844-15 15-15h349.199218c8.28125 0 15 6.71875 15 15v110.332031h3.199219c16.875 0 32.742188-6.570312 44.695313-18.511718 11.933594-11.941406 18.503906-27.8125 18.503906-44.683594v-64.269531c0-16.875-6.570312-32.742188-18.511719-44.695313zm0 0"/><path d="m96.398438 464.867188c0 12.597656 4.90625 24.433593 13.800781 33.316406 8.898437 8.910156 20.734375 13.816406 33.332031 13.816406h224.9375c12.597656 0 24.433594-4.90625 33.316406-13.800781 8.90625-8.898438 13.8125-20.734375 13.8125-33.332031v-369.535157h-319.199218zm159.601562-320.265626c52.566406 0 95.332031 42.765626 95.332031 95.332032s-42.765625 95.332031-95.332031 95.332031-95.332031-42.765625-95.332031-95.332031 42.765625-95.332032 95.332031-95.332032zm-80.332031 257.066407h160.664062c8.285157 0 15 6.714843 15 15 0 8.28125-6.714843 15-15 15h-160.664062c-8.285157 0-15-6.71875-15-15 0-8.285157 6.714843-15 15-15zm0 0"/></svg>