<svg height="512" viewBox="0 0 48 48" width="512" xmlns="http://www.w3.org/2000/svg"><g id="Deposit"><path d="m47.78 33.75a4.28 4.28 0 0 0 -5.45-2.67l-4.33 1.35a4 4 0 0 0 -4-4.43h-10.7c-3.8-2.54-7-2-13.3-2v-1a1 1 0 0 0 -1-1h-8a1 1 0 0 0 -1 1v16a1 1 0 0 0 1 1h8a1 1 0 0 0 1-1c0-.35-.09-.33.29-.11a29.82 29.82 0 0 0 26.13 1.77l9-3.65a4.28 4.28 0 0 0 2.36-5.26zm-39.78 6.25h-6v-14h6zm36.67-2.84-9 3.64a27.78 27.78 0 0 1 -24.38-1.65l-1.29-.73v-10.42c6.59 0 9.05-.43 12.19 1.66.7.47.27.34 11.81.34a2 2 0 0 1 1.53 3.28c-1.12 1-.15.72-12.53.72a1 1 0 0 0 0 2c11.27 0 12.2.37 13.75-1.1l6.25-1.9a2.26 2.26 0 0 1 1.7 4.18z"/><path d="m4.29 36.29a1 1 0 1 0 1.42 0 1 1 0 0 0 -1.42 0z"/><path d="m32 17h-4a1 1 0 0 0 0 2h2v1a1 1 0 0 0 2 0v-1a3 3 0 0 0 0-6h-2a1 1 0 0 1 0-2h4a1 1 0 0 0 0-2h-2v-1a1 1 0 0 0 -2 0v1a3 3 0 0 0 0 6h2a1 1 0 0 1 0 2z"/><path d="m31 25a11 11 0 1 0 -11-11 11 11 0 0 0 11 11zm0-20a9 9 0 1 1 -9 9 9 9 0 0 1 9-9z"/></g></svg>