<svg width="24" height="24" viewBox="0 0 24 24" fill="none" xmlns="http://www.w3.org/2000/svg">
<path d="M12 15.9995V16.0095M12 12.9995C12.4498 13.0009 12.8868 12.8506 13.2407 12.573C13.5945 12.2953 13.8444 11.9065 13.95 11.4693C14.0557 11.0322 14.0109 10.5722 13.8229 10.1636C13.6349 9.755 13.3147 9.4217 12.914 9.21752C12.5162 9.01373 12.0611 8.95054 11.6228 9.03824C11.1845 9.12593 10.7888 9.35935 10.5 9.70052M19.875 6.26959C20.575 6.66759 21.005 7.41259 21 8.21759V15.5016C21 16.3106 20.557 17.0566 19.842 17.4496L13.092 21.7196C12.7574 21.9033 12.3818 21.9996 12 21.9996C11.6182 21.9996 11.2426 21.9033 10.908 21.7196L4.158 17.4496C3.80817 17.2584 3.51612 16.9768 3.31241 16.6341C3.1087 16.2914 3.0008 15.9003 3 15.5016V8.21659C3 7.40759 3.443 6.66259 4.158 6.26959L10.908 2.28959C11.2525 2.09963 11.6396 2 12.033 2C12.4264 2 12.8135 2.09963 13.158 2.28959L19.908 6.26959H19.875Z" stroke="#818181" stroke-width="1.5" stroke-linecap="round" stroke-linejoin="round"/>
</svg>
