<svg width="20" height="20" viewBox="0 0 20 20" fill="none" xmlns="http://www.w3.org/2000/svg">
<path d="M14.0127 3L17.0127 6M7.01262 5.07007C5.25841 5.32001 3.66426 6.22592 2.55173 7.60505C1.43921 8.98419 0.891104 10.7339 1.01798 12.5013C1.14486 14.2687 1.93727 15.9222 3.23538 17.1283C4.53349 18.3343 6.24069 19.0033 8.01262 19.0001C9.69602 19.0003 11.3231 18.3938 12.5957 17.2918C13.8683 16.1899 14.7011 14.6662 14.9416 13.0001M10.0127 13.0001L18.3977 4.58511C18.7915 4.19126 19.0128 3.65709 19.0128 3.10011C19.0128 2.54312 18.7915 2.00895 18.3977 1.61511C18.0038 1.22126 17.4697 1 16.9127 1C16.3557 1 15.8215 1.22126 15.4277 1.61511L7.0127 10.0001V13.0001H10.0127Z" stroke="#818181" stroke-width="1.5" stroke-linecap="round" stroke-linejoin="round"/>
</svg>
